<svg width="57" height="56" viewBox="0 0 57 56" fill="none" xmlns="http://www.w3.org/2000/svg">
<g id="Group 230">
<path id="Vector" d="M37.1703 31.904C37.3668 31.6987 37.5521 31.4959 37.7472 31.3033C38.2324 30.8243 38.8728 30.7991 39.3875 31.238C42.3266 33.7437 45.2645 36.2508 48.2035 38.7561C50.0043 40.2912 51.818 41.8112 53.6037 43.3636C54.7914 44.3962 55.5549 45.7078 55.8543 47.2538C56.3669 49.8999 55.6574 52.1978 53.7047 54.0551C52.138 55.5456 50.2267 56.1632 48.0748 55.9635C46.0537 55.7761 44.4206 54.8466 43.1192 53.2947C41.749 51.6606 40.356 50.0455 38.9724 48.4226C36.9787 46.084 34.9846 43.7453 32.9905 41.4067C32.4221 40.74 31.8551 40.0716 31.2842 39.4066C30.8119 38.8564 30.827 38.2255 31.3354 37.715C31.5249 37.5248 31.7231 37.3438 31.9653 37.1125C31.8544 37.0287 31.7617 36.9743 31.6881 36.901C30.6694 35.8865 29.6519 34.8711 28.6392 33.8507C28.5371 33.7475 28.4722 33.7409 28.3483 33.8209C26.1262 35.2539 23.7068 36.1834 21.0896 36.5511C16.4575 37.202 12.1451 36.2908 8.2503 33.6886C3.9509 30.8155 1.28487 26.8021 0.330461 21.7164C-0.463593 17.4861 0.17537 13.4369 2.22559 9.64521C4.16038 6.06723 6.99518 3.41488 10.684 1.69449C13.4929 0.383582 16.4558 -0.15994 19.5478 0.0404156C23.4886 0.29586 27.0072 1.66642 30.0515 4.17736C33.5186 7.03708 35.6762 10.6968 36.4752 15.126C37.1521 18.8784 36.6868 22.5024 35.1267 25.9835C34.7559 26.8112 34.3204 27.6046 33.8228 28.3625C33.7604 28.4576 33.7628 28.5158 33.846 28.5983C34.9271 29.6741 36.0047 30.7538 37.0836 31.8321C37.0998 31.8482 37.1191 31.8615 37.1703 31.904ZM34.4636 18.3896C34.4646 9.51889 27.3058 2.32117 18.4611 2.30012C9.54998 2.27872 2.32279 9.4617 2.31928 18.3423C2.31577 27.2583 9.48928 34.4444 18.3944 34.4462C27.2701 34.4479 34.4625 27.2611 34.4636 18.3896ZM38.6788 33.6511C37.0019 35.3276 35.3415 36.9876 33.673 38.6557C33.699 38.6887 33.7299 38.7301 33.7632 38.7691C34.4716 39.601 35.1794 40.4333 35.8885 41.2642C38.93 44.8292 41.9732 48.3928 45.0129 51.9596C47.0119 54.3049 50.6271 54.2786 52.5914 51.9003C54.2798 49.8557 54.044 46.7636 52.0661 45.0699C50.4594 43.6945 48.8485 42.3239 47.2393 40.9512C44.9501 38.9985 42.6606 37.0459 40.3711 35.0932C39.8069 34.6121 39.2426 34.1314 38.6788 33.6507V33.6511ZM35.4724 33.5458C34.4243 32.4963 33.3709 31.4415 32.3867 30.4562C31.7509 31.0913 31.0996 31.7422 30.4628 32.3784C31.4519 33.3686 32.5035 34.4212 33.5492 35.4683C34.193 34.8248 34.8446 34.1732 35.4724 33.5458Z" fill="#77C373"/>
<path id="Vector_2" d="M7.97805 15.1436C7.98647 12.8593 10.2879 11.3424 12.421 12.221C12.5543 12.2758 12.6231 12.2533 12.7203 12.1621C13.5775 11.3596 14.4389 10.5617 15.3028 9.76625C15.3867 9.68905 15.4088 9.62976 15.3723 9.51361C14.9828 8.26727 15.2119 7.14057 16.1358 6.21599C17.0541 5.29737 18.1839 5.03526 19.4145 5.45141C20.6461 5.86791 21.3496 6.76934 21.5587 8.05147C21.585 8.21183 21.5703 8.3785 21.5907 8.54025C21.5977 8.59675 21.6405 8.67429 21.6882 8.69675C22.2117 8.94167 22.7412 9.17431 23.2651 9.41817C23.3682 9.46624 23.4142 9.40905 23.4749 9.35571C24.1139 8.79465 24.8595 8.5178 25.7087 8.54482C27.3838 8.59885 28.735 9.93257 28.7982 11.5831C28.8638 13.2884 27.6462 14.7197 25.9637 14.9155C24.0848 15.1341 22.4159 13.6523 22.4149 11.7554C22.4149 11.5916 22.3605 11.5224 22.2177 11.461C21.7349 11.2533 21.2577 11.0326 20.7808 10.8112C20.6787 10.7638 20.6124 10.7687 20.5198 10.8466C19.4917 11.7144 18.3492 11.8947 17.1018 11.3926C17.0134 11.3572 16.9583 11.3621 16.887 11.4287C16.007 12.2495 15.1249 13.0684 14.2393 13.8828C14.1505 13.9646 14.1652 14.0323 14.1971 14.1288C14.741 15.7822 13.9196 17.5278 12.3097 18.1458C10.2135 18.9503 7.96963 17.3949 7.97805 15.1432V15.1436ZM26.5041 11.7421C26.5055 11.2544 26.1062 10.8477 25.6192 10.8414C25.1248 10.835 24.7132 11.241 24.7118 11.7365C24.7104 12.2344 25.1153 12.6382 25.6132 12.6365C26.1002 12.6344 26.5024 12.2305 26.5041 11.7421ZM12.0666 15.1874C12.0796 14.6853 11.6795 14.273 11.1694 14.2625C10.7006 14.253 10.289 14.6548 10.2749 15.1359C10.2606 15.6292 10.6588 16.0478 11.1543 16.0597C11.6388 16.0713 12.0539 15.6748 12.0666 15.1878V15.1874ZM19.286 8.47394C19.2881 7.98305 18.8927 7.57988 18.4029 7.57356C17.9064 7.5676 17.4986 7.96831 17.4941 8.46762C17.4895 8.95746 17.9039 9.37185 18.3965 9.3701C18.8815 9.36835 19.2839 8.96272 19.2857 8.47359L19.286 8.47394Z" fill="#77C373"/>
<path id="Vector_3" d="M21.5495 21.3974C21.5495 23.6126 21.5495 25.8273 21.5495 28.0425C21.5495 28.8365 21.0807 29.3029 20.2818 29.3029C19.0077 29.3029 17.7336 29.3018 16.4596 29.3011C15.715 29.3004 15.2311 28.8172 15.2308 28.072C15.2301 25.74 15.2308 23.408 15.2308 21.0763C15.2308 18.9433 15.2301 16.8099 15.2315 14.6769C15.2318 14.08 15.5652 13.632 16.1087 13.4983C16.215 13.472 16.3284 13.4663 16.4385 13.4663C17.7361 13.4642 19.0333 13.4635 20.3309 13.4653C21.0706 13.4663 21.5485 13.9439 21.5488 14.6825C21.5499 16.9208 21.5492 19.1595 21.5492 21.3978L21.5495 21.3974ZM19.2418 26.9912V15.778H17.5449V26.9912H19.2418Z" fill="#77C373"/>
<path id="Vector_4" d="M28.7652 23.0217C28.7652 24.7042 28.7652 26.3867 28.7652 28.0695C28.7652 28.8302 28.2926 29.3015 27.5266 29.3022C26.2413 29.3036 24.956 29.3032 23.6707 29.3022C22.936 29.3018 22.4489 28.8193 22.4486 28.0832C22.4468 24.7006 22.4468 21.3178 22.4486 17.9352C22.4489 17.2201 22.9335 16.7345 23.6486 16.7327C24.9514 16.7292 26.2543 16.7292 27.5571 16.732C28.2901 16.7334 28.7645 17.2075 28.7652 17.9387C28.7673 19.6332 28.7659 21.3272 28.7656 23.0217H28.7652ZM26.4599 26.9902V19.0437H24.7574V26.9902H26.4599Z" fill="#77C373"/>
<path id="Vector_5" d="M8.01487 24.7175C8.01487 23.6073 8.01417 22.4971 8.01487 21.3869C8.01557 20.6276 8.49102 20.1549 9.25455 20.1546C10.5283 20.1539 11.802 20.1539 13.0757 20.1546C13.8606 20.1553 14.3319 20.6258 14.3322 21.409C14.3329 23.6294 14.3333 25.8498 14.3329 28.0699C14.3329 28.8172 13.8522 29.3011 13.1066 29.3025C11.8213 29.3043 10.5356 29.3043 9.25034 29.3025C8.48821 29.3015 8.01557 28.8278 8.01487 28.0653C8.01347 26.9491 8.01452 25.8333 8.01487 24.7171V24.7175ZM12.0157 26.9909V22.4687H10.3184V26.9909H12.0157Z" fill="#77C373"/>
</g>
</svg>
