<svg width="41" height="57" viewBox="0 0 41 57" fill="none" xmlns="http://www.w3.org/2000/svg">
<g id="Group 224">
<path id="Vector" d="M31.0586 0.00223064C32.6691 1.4778 34.3142 2.91767 35.8723 4.44789C36.4221 4.98882 36.7902 5.72939 37.185 6.41085C38.2914 8.31804 39.3699 10.242 40.4573 12.1603C41.2526 13.5612 41.1187 14.4679 39.9633 15.5754C39.226 16.2814 38.5044 17.003 37.7516 17.6912C37.4761 17.9432 37.3947 18.2076 37.398 18.5645C37.4114 20.5118 37.4058 22.4603 37.4036 24.4087C37.4036 25.1437 37.2285 25.388 36.5281 25.6389C35.6068 25.9702 34.7436 25.8497 33.8435 25.2017C33.8435 25.9456 33.8446 26.597 33.8435 27.2495C33.8413 28.232 33.5747 28.4975 32.5865 28.4986C31.0095 28.5008 29.4324 28.502 27.8554 28.4986C27.0245 28.4964 26.7211 28.1897 26.72 27.3521C26.7166 25.8698 26.72 24.3875 26.6062 22.8083C26.4623 22.9811 26.333 23.1696 26.1712 23.3235C25.2556 24.2013 24.0343 24.0061 23.4733 22.8785C22.7071 21.336 21.9665 19.7802 21.2081 18.2343C20.782 17.3677 20.6025 16.4521 20.6013 15.4918C20.6002 14.527 20.5768 13.5623 20.5746 12.5975C20.5723 11.6874 20.3582 10.8576 19.8608 10.0736C18.1142 7.3176 17.5331 4.29174 17.9302 1.07628C17.9748 0.701535 18.2904 0.359132 18.48 0.00223064C18.7031 0.00223064 18.925 0.00223064 19.1481 0.00223064C19.5831 0.300021 19.7615 0.691497 19.6957 1.23131C19.3343 4.17017 19.9121 6.9027 21.5204 9.40548C21.9988 10.1505 22.2933 10.9613 22.3078 11.8603C22.3245 12.8607 22.3881 13.8623 22.3624 14.8616C22.3301 16.0974 22.5877 17.2428 23.1621 18.3358C23.7856 19.5203 24.3689 20.7237 25.0035 21.9863C25.5032 21.3818 25.8467 20.823 25.8076 20.1114C25.7586 19.2058 25.695 18.3013 25.6236 17.3967C25.5522 16.4956 25.2879 15.5676 25.4229 14.701C25.6147 13.4708 26.0541 12.2718 26.4735 11.0896C26.6174 10.6859 26.9542 10.271 27.3167 10.0367C29.6209 8.54891 32.591 9.87168 33.0282 12.5685C33.3271 14.4155 33.5736 16.2703 33.8424 18.1217C34.0766 19.7344 34.3041 21.3483 34.5484 22.9599C34.6532 23.6559 35.0146 23.9905 35.6213 23.9793C35.6213 23.7953 35.6213 23.6113 35.6213 23.4273C35.6224 19.0519 35.6247 14.6765 35.6247 10.3C35.6247 9.54043 35.6559 8.77867 35.6135 8.02137C35.5566 7.00977 35.212 6.14763 34.3934 5.44721C33.0137 4.26721 31.7043 3.00355 30.3682 1.77336C29.6376 1.10082 29.6443 0.661384 30.3905 0C30.6135 0 30.8355 0 31.0586 0V0.00223064ZM32.4884 21.3583C32.4884 21.258 32.4973 21.1866 32.4873 21.1185C32.2564 19.5437 32.0233 17.9689 31.7924 16.3941C31.6173 15.204 31.4478 14.0129 31.2682 12.8228C31.1311 11.9116 30.502 11.2814 29.6008 11.2435C28.3885 11.1933 28.1743 11.393 27.8431 12.4157C27.4338 13.6794 26.9821 14.9151 27.2542 16.3104C27.5765 17.9633 27.7394 19.643 27.4773 21.3595H32.4895L32.4884 21.3583ZM32.0133 26.7063V23.1942H28.5402V26.7063H32.0133ZM37.427 15.4048C37.5006 15.4683 37.5742 15.5319 37.6479 15.5955C38.094 15.078 38.5557 14.5739 38.9762 14.0363C39.0933 13.8868 39.1915 13.5857 39.119 13.4474C38.6081 12.4759 38.0505 11.529 37.427 10.4305V15.4048Z" fill="#77C373"/>
<path id="Vector_2" d="M10.5534 36.4932C10.55 33.7395 11.1646 31.2278 13.0662 29.179C14.9611 27.1357 17.4405 26.4375 20.1451 26.2211C20.1451 26.0717 20.1384 25.9468 20.1451 25.8219C20.1864 25.1348 20.7753 24.7433 21.3965 25.0344C22.1337 25.3791 22.8598 25.7538 23.5647 26.162C24.2071 26.5334 24.2138 27.2852 23.5881 27.7045C23.0193 28.086 22.4226 28.4261 21.8359 28.7808C20.9548 29.3117 20.4117 29.0864 20.1641 28.0302C18.5201 28.0949 16.962 28.4752 15.5645 29.3886C13.6975 30.6088 12.7918 32.4279 12.4818 34.5693C12.3702 35.3344 12.3691 36.1207 12.3691 36.897C12.3691 37.8204 12.2074 38.0435 11.3163 38.1952C9.22391 38.5521 7.36803 39.3562 6.05195 41.1051C4.84072 42.7134 4.42805 44.5704 4.45593 46.5478C4.45816 46.733 4.47601 46.9181 4.47601 47.1032C4.47601 47.6509 4.17041 48.0278 3.69082 48.0803C3.20343 48.1338 2.71826 47.7825 2.7283 47.2282C2.74949 46.1028 2.74392 44.9529 2.97256 43.8599C3.79343 39.9273 6.23709 37.5338 10.1407 36.617C10.2656 36.588 10.3872 36.5434 10.5545 36.4921L10.5534 36.4932Z" fill="#77C373"/>
<path id="Vector_3" d="M21.3809 32.0609C22.2151 32.0609 23.0505 32.0542 23.8848 32.0632C24.6097 32.0699 24.9309 32.3922 24.9343 33.125C24.941 34.7946 24.941 36.4642 24.9343 38.1339C24.9309 38.8555 24.6008 39.1811 23.8725 39.1845C22.2029 39.1901 20.5332 39.1912 18.8636 39.1845C18.1387 39.1811 17.8174 38.8543 17.8141 38.1227C17.8074 36.4531 17.8074 34.7834 17.8141 33.1138C17.8174 32.3888 18.1442 32.071 18.8759 32.0643C19.7101 32.0576 20.5455 32.0632 21.3798 32.0632L21.3809 32.0609ZM19.6343 33.8655V37.3587H23.1252V33.8655H19.6343Z" fill="#77C373"/>
<path id="Vector_4" d="M26.7177 35.6233C26.7177 34.789 26.7122 33.9536 26.72 33.1194C26.7267 32.3911 27.0479 32.0665 27.7751 32.0643C29.4447 32.0576 31.1143 32.0576 32.784 32.0643C33.5123 32.0676 33.8368 32.39 33.8402 33.1194C33.8469 34.789 33.8469 36.4586 33.8402 38.1283C33.8379 38.8532 33.5089 39.1822 32.7851 39.1856C31.1154 39.1923 29.4458 39.1923 27.7762 39.1856C27.0479 39.1822 26.7267 38.8577 26.72 38.1305C26.7122 37.2962 26.7177 36.4609 26.7177 35.6266V35.6233ZM28.5246 37.3654H32.0177V33.8711H28.5246V37.3654Z" fill="#77C373"/>
<path id="Vector_5" d="M16.0318 44.5279C16.0318 45.3622 16.0385 46.1976 16.0307 47.0318C16.024 47.7568 15.6984 48.0847 14.9734 48.088C13.3038 48.0947 11.6341 48.0947 9.96451 48.088C9.23732 48.0847 8.91277 47.7601 8.91054 47.0318C8.90384 45.3622 8.90384 43.6926 8.91054 42.0229C8.91388 41.2957 9.23844 40.9712 9.96674 40.9689C11.6364 40.9623 13.306 40.9623 14.9756 40.9689C15.7028 40.9723 16.024 41.2957 16.0307 42.0252C16.0385 42.8594 16.033 43.6948 16.033 44.529L16.0318 44.5279ZM14.2128 46.2823V42.7891H10.7162V46.2823H14.2128Z" fill="#77C373"/>
<path id="Vector_6" d="M21.43 40.9656C22.2464 40.9656 23.0628 40.96 23.8792 40.9678C24.6075 40.9745 24.9321 41.2946 24.9343 42.0229C24.941 43.6926 24.941 45.3622 24.9343 47.0318C24.9321 47.7568 24.6031 48.0858 23.8781 48.0891C22.2085 48.0958 20.5388 48.0958 18.8692 48.0891C18.1409 48.0858 17.8163 47.7612 17.813 47.0341C17.8063 45.3644 17.8063 43.6948 17.813 42.0252C17.8163 41.2969 18.1409 40.9757 18.8681 40.969C19.7213 40.9612 20.5745 40.9667 21.4277 40.9667L21.43 40.9656ZM23.1297 42.778H19.6299V46.2678H23.1297V42.778Z" fill="#77C373"/>
<path id="Vector_7" d="M33.8424 44.567C33.8424 45.3834 33.848 46.1998 33.8413 47.0163C33.8357 47.7501 33.5167 48.0859 32.8007 48.0881C31.1121 48.0959 29.4246 48.0959 27.736 48.087C27.0501 48.0836 26.7233 47.7468 26.72 47.0486C26.7122 45.36 26.7122 43.6725 26.72 41.9839C26.7233 41.298 27.0601 40.9712 27.7583 40.969C29.4469 40.9623 31.1344 40.9612 32.823 40.969C33.5111 40.9724 33.8312 41.3058 33.839 42.0074C33.848 42.8606 33.8413 43.7138 33.8413 44.567H33.8424ZM28.5312 42.7747V46.2723H32.0188V42.7747H28.5312Z" fill="#77C373"/>
<path id="Vector_8" d="M3.52915 56.995C2.69489 56.995 1.85951 57.0028 1.02526 56.9927C0.337105 56.9838 0.00920137 56.6537 0.00585542 55.9577C-0.00195181 54.2691 -0.00195181 52.5816 0.00585542 50.8931C0.00920137 50.2027 0.341566 49.877 1.03976 49.8737C2.72835 49.8658 4.41582 49.8658 6.10441 49.8737C6.7948 49.877 7.12158 50.2094 7.12493 50.9076C7.13274 52.5961 7.13385 54.2836 7.12493 55.9722C7.12158 56.6592 6.78476 56.986 6.08992 56.9927C5.2367 57.0017 4.38348 56.995 3.53026 56.995H3.52915ZM1.81602 51.6794V55.177H5.30362V51.6794H1.81602Z" fill="#77C373"/>
<path id="Vector_9" d="M8.90722 53.378C8.90722 52.5616 8.90164 51.7452 8.90945 50.9299C8.91614 50.2016 9.23735 49.877 9.96454 49.8748C11.6342 49.8681 13.3038 49.8681 14.9734 49.8748C15.7017 49.8781 16.0263 50.2004 16.0296 50.9299C16.0363 52.5995 16.0363 54.2691 16.0296 55.9388C16.0263 56.6648 15.6995 56.9916 14.9734 56.995C13.3038 57.0017 11.6342 57.0017 9.96454 56.995C9.23624 56.9916 8.91503 56.6671 8.90833 55.9399C8.90053 55.0867 8.9061 54.2334 8.9061 53.3802L8.90722 53.378ZM14.2239 51.6905H10.7308V55.187H14.2239V51.6905Z" fill="#77C373"/>
<path id="Vector_10" d="M21.3742 49.8714C22.2085 49.8714 23.0439 49.8659 23.8781 49.8737C24.6064 49.8804 24.931 50.2005 24.9332 50.9288C24.9399 52.5984 24.9399 54.268 24.9332 55.9377C24.931 56.6637 24.6031 56.9905 23.877 56.9939C22.2074 57.0005 20.5377 57.0005 18.8681 56.9939C18.1409 56.9905 17.8152 56.666 17.8119 55.9388C17.8052 54.2691 17.8052 52.5995 17.8119 50.9299C17.8152 50.2016 18.1398 49.8804 18.867 49.8737C19.7013 49.8659 20.5366 49.8714 21.3709 49.8714H21.3742ZM19.6187 55.1748H23.1119V51.6805H19.6187V55.1748Z" fill="#77C373"/>
<path id="Vector_11" d="M26.7178 53.378C26.7178 52.5616 26.7122 51.7452 26.72 50.9299C26.7267 50.2016 27.0479 49.8759 27.774 49.8737C29.4436 49.867 31.1133 49.867 32.7829 49.8737C33.5123 49.877 33.8369 50.1993 33.8391 50.9276C33.8458 52.5973 33.8458 54.2669 33.8391 55.9365C33.8369 56.6626 33.5101 56.9905 32.784 56.9939C31.1144 57.0006 29.4447 57.0006 27.7751 56.9939C27.0468 56.9905 26.7245 56.666 26.7178 55.9399C26.71 55.0867 26.7156 54.2334 26.7156 53.3802L26.7178 53.378ZM28.538 51.676V55.1692H32.0312V51.676H28.538Z" fill="#77C373"/>
</g>
</svg>
