<svg width="56" height="56" viewBox="0 0 56 56" fill="none" xmlns="http://www.w3.org/2000/svg">
<g id="Group 229">
<path id="Vector" d="M44.3229 27.1028H46.0688C46.0688 27.6617 46.0813 28.198 46.0654 28.7344C46.0417 29.5694 46.3506 30.2109 47.1347 30.5515C47.9437 30.9034 48.6407 30.6737 49.229 30.0514C49.59 29.6701 49.9475 29.2831 50.2666 28.9403C51.5825 30.2585 52.8385 31.5178 54.1974 32.879C53.8557 33.1833 53.4257 33.5466 53.0184 33.9347C52.4323 34.4936 52.2343 35.1623 52.5398 35.9362C52.826 36.6627 53.4449 37.0406 54.3332 37.0462C54.8593 37.0496 55.3866 37.0462 55.9602 37.0462V42.4672C55.4205 42.4672 54.8638 42.4739 54.3083 42.466C53.4913 42.4547 52.8815 42.7885 52.5579 43.5477C52.2331 44.3092 52.4176 44.9858 52.998 45.5572C53.3986 45.9521 53.8138 46.3323 54.1895 46.6887C52.8713 48.0058 51.6131 49.2628 50.2802 50.5957C49.9385 50.228 49.564 49.8082 49.1713 49.4054C48.6056 48.825 47.9324 48.6202 47.1675 48.9483C46.415 49.2708 46.0586 49.8693 46.0688 50.6908C46.0756 51.235 46.0699 51.7793 46.0699 52.3642H40.649C40.649 51.8075 40.6535 51.2497 40.649 50.6908C40.6411 49.8376 40.2575 49.2187 39.5571 48.9438C38.7877 48.6417 38.1168 48.8193 37.5499 49.4043C37.1584 49.8082 36.7816 50.2257 36.3064 50.736C35.9307 50.3061 35.6264 49.9587 35.2632 49.5423C35.1647 50.9058 34.5662 51.7951 33.3747 52.2681C33.2469 52.319 33.1462 52.4977 33.0794 52.6392C32.0611 54.8026 30.3672 56.0076 27.973 55.9986C25.6037 55.9884 23.9314 54.7799 22.9209 52.6414C22.8485 52.4876 22.7218 52.319 22.5758 52.2443C20.6783 51.2825 20.2427 49.6736 21.3516 48.0284C21.0959 47.2183 20.8628 46.4839 20.6229 45.7224C20.5709 45.7711 20.4294 45.8989 20.2936 46.0347C18.6428 47.6844 16.9988 49.3409 15.3366 50.9793C15.0911 51.2203 14.7799 51.4296 14.4597 51.5541C10.7824 52.9832 7.10056 54.4009 3.41306 55.8051C1.87764 56.39 0.353532 55.6139 0.0616094 54.0728C-0.0209888 53.6349 0.0276649 53.1167 0.184941 52.698C1.61287 48.8996 3.07588 45.1137 4.54228 41.33C4.6328 41.0969 4.82062 40.8865 5.00166 40.7043C7.43209 38.2637 9.86251 35.8231 12.3122 33.4017C12.6154 33.1019 12.6539 32.8677 12.5057 32.4773C11.6785 30.2958 11.5903 28.0396 11.898 25.7506C11.915 25.6217 11.932 25.4938 11.9569 25.3026C11.7283 25.3026 11.5258 25.3026 11.3233 25.3026C9.42236 25.3026 7.52147 25.306 5.62058 25.3026C2.85184 25.2958 0.593406 23.5194 0.108 20.9735C-0.410219 18.2546 0.964532 15.8343 3.62917 14.773C3.68122 14.7526 3.72761 14.7187 3.81474 14.67C3.77853 14.4109 3.74006 14.1382 3.70385 13.8656C3.13585 9.58968 5.59343 5.56839 9.65092 4.13254C13.6428 2.72045 18.0873 4.29887 20.305 7.93771C20.5267 8.30092 20.7112 8.3937 21.1468 8.29866C24.0004 7.68313 26.9139 8.88816 28.5603 11.3503C28.7854 11.6863 29.0377 11.7961 29.4202 11.8538C30.4962 12.0144 31.5711 12.2 32.6279 12.4535C33.024 12.5485 33.2389 12.4693 33.5037 12.2034C36.837 8.85535 40.1715 5.50842 43.5241 2.18073C46.2317 -0.506538 50.3764 -0.730572 53.2809 1.62178C56.6855 4.37807 56.9469 9.33962 53.824 12.4953C50.5269 15.8253 47.2071 19.1337 43.8771 22.4309C43.5151 22.7884 43.4721 23.0826 43.5909 23.5578C43.876 24.7018 44.074 25.8683 44.3229 27.1039V27.1028ZM9.06368 19.8601C9.01503 19.575 8.98674 19.3521 8.93809 19.1315C8.53981 17.2928 6.79053 16.0425 4.96885 16.2914C3.07701 16.5506 1.72263 18.1697 1.80635 20.0729C1.89235 22.0281 3.49566 23.4945 5.57532 23.4945C13.593 23.499 21.6107 23.4956 29.6284 23.4956C29.7415 23.4956 29.8547 23.5001 29.9667 23.4899C31.0733 23.3802 31.8789 22.8314 32.3055 21.8006C32.7241 20.7868 32.5544 19.8296 31.8348 19.0127C31.1004 18.1788 30.1568 17.8778 29.0785 18.1901C27.8101 18.5567 27.2104 19.4901 27.0656 20.7529H25.2857C25.3525 19.2322 25.9273 17.9819 27.1753 17.1797C27.8452 16.7497 27.9775 16.2111 27.9968 15.5379C28.0748 12.7171 26.0472 10.3704 23.1925 9.97778C20.5856 9.6191 18.0126 11.4136 17.3246 14.0466C17.2194 14.4494 17.2907 14.6304 17.698 14.8013C19.0479 15.3693 19.8976 16.6943 19.8297 18.0475H18.1054C17.8417 16.9138 17.2488 16.3175 16.3504 16.2733C15.3909 16.2258 14.7686 16.7859 14.3816 18.0328H12.6641C12.6788 16.5234 13.5704 15.2822 14.9881 14.6881C15.1827 14.6067 15.4068 14.3691 15.4441 14.1711C15.822 12.1887 16.82 10.6148 18.4595 9.44372C18.6089 9.33736 18.7582 9.22987 18.8974 9.12916C18.8714 9.05449 18.8646 9.01602 18.8453 8.9832C17.1402 5.98478 13.3588 4.65302 10.0843 5.89539C6.79619 7.14228 4.81723 10.7166 5.54364 14.0703C5.61153 14.386 5.76202 14.4811 6.06752 14.5184C7.47169 14.6893 8.64277 15.3218 9.55475 16.4046C10.3886 17.3958 10.8231 18.5374 10.8186 19.8613H9.06368V19.8601ZM29.8309 16.2371C29.8309 16.2371 29.8411 16.2507 29.8569 16.253C29.969 16.2643 30.0821 16.2688 30.1941 16.2824C31.9626 16.5019 33.265 17.398 33.9597 19.0409C34.6454 20.6646 34.4089 22.2215 33.3181 23.6053C32.4265 24.7368 31.2192 25.2867 29.7811 25.2992C28.3011 25.3116 26.82 25.3014 25.2914 25.3014C25.2914 26.1297 25.2914 26.8968 25.2914 27.664C25.2937 28.6303 25.572 28.9143 26.5247 28.9154C28.7832 28.9165 31.0416 28.9199 33.2989 28.9131C33.9631 28.9109 34.5616 29.0851 35.0855 29.4947C35.9964 30.2087 36.3539 31.3956 35.9918 32.4818C35.6275 33.5748 34.6103 34.3261 33.4166 34.3307C30.4623 34.342 27.508 34.3329 24.5537 34.3375C23.8895 34.3375 23.4867 34.6939 23.4889 35.2426C23.4923 35.7903 23.8952 36.132 24.5616 36.141C25.107 36.1478 25.6535 36.1343 26.1988 36.1456C27.7139 36.1761 28.8737 37.3234 28.8997 38.8362C28.9189 39.9462 28.9042 41.0562 28.9042 42.1673C28.9042 42.5554 28.9042 42.9446 28.9042 43.3848C30.2688 43.3848 31.5643 43.3938 32.8588 43.3689C32.981 43.3667 33.1235 43.1642 33.2152 43.0261C33.9325 41.9512 34.5413 40.7835 35.374 39.8082C36.5802 38.395 37.9516 37.122 39.2448 35.7812C41.1389 33.817 42.2976 31.5144 42.439 28.7525C42.766 22.3867 38.7481 16.4238 32.7139 14.3713C31.7307 14.0375 30.6999 13.8441 29.677 13.5827C29.7325 14.5422 29.78 15.3614 29.8309 16.2349V16.2371ZM27.0961 43.3848C27.0961 41.8301 27.1052 40.3807 27.0916 38.9324C27.0859 38.3022 26.7363 37.9684 26.1015 37.9537C25.5188 37.9401 24.935 37.9616 24.3511 37.9469C22.9605 37.9129 21.82 36.8629 21.6876 35.5085C21.5541 34.1428 22.4536 32.8971 23.8216 32.604C24.1837 32.526 24.5684 32.5339 24.9429 32.5327C27.6901 32.5271 30.4385 32.5316 33.1858 32.5294C33.8545 32.5294 34.2403 32.2555 34.3138 31.7475C34.3964 31.1682 33.954 30.728 33.2593 30.7258C30.9635 30.7201 28.6677 30.7269 26.372 30.7224C24.617 30.719 23.4912 29.5818 23.4856 27.8167C23.4822 26.9953 23.4856 26.1727 23.4856 25.3343H13.8646C12.9865 28.5884 13.7661 32.2476 16.0042 34.8919C17.0712 36.1524 18.2819 37.2929 19.4405 38.4742C20.7915 39.8512 22.0192 41.3142 22.8168 43.0963C22.8723 43.2196 23.0431 43.3701 23.162 43.3723C24.4552 43.3927 25.7485 43.3848 27.0984 43.3848H27.0961ZM43.248 33.3938C47.3078 34.0127 49.5866 36.1761 49.676 39.5536C49.7574 42.6369 47.6054 45.3705 44.6284 45.9533C43.1145 46.2497 41.6696 46.0438 40.3198 45.2902C38.5037 44.2775 37.4684 42.6957 37.0713 40.5855C36.0292 41.691 35.2383 42.8383 34.7246 44.1644C34.6714 44.3024 34.7415 44.5253 34.8219 44.6702C35.1534 45.2664 35.3141 45.882 35.1749 46.5654C35.1489 46.6921 35.1704 46.8777 35.2484 46.9682C35.5766 47.3461 35.9353 47.6991 36.2781 48.0555C38.6814 45.8899 42.267 47.2692 42.5046 50.5686H44.2256C44.3784 47.4117 47.9244 45.8163 50.3809 47.9922C50.7905 47.5905 51.2001 47.19 51.6085 46.7894C49.4587 44.3737 50.9331 40.822 54.1702 40.6138V38.8939C50.9489 38.7095 49.4531 35.1465 51.5995 32.7285C51.1967 32.3212 50.7939 31.9138 50.3764 31.4906C49.2947 32.4309 48.0896 32.7907 46.7081 32.3257C45.3277 31.8595 44.5707 30.8355 44.2788 29.5524C43.9428 30.8061 43.5943 32.1039 43.2469 33.3938H43.248ZM43.8398 4.44709C46.4309 7.03592 48.9926 9.59647 51.5486 12.1514C51.9831 11.727 52.5081 11.2903 52.9403 10.7777C54.4158 9.02959 54.6058 6.53128 53.4517 4.55345C52.2886 2.55865 50.055 1.53239 47.7921 1.89786C46.0733 2.17621 44.9034 3.25564 43.8398 4.44709ZM5.72694 43.275C4.9994 45.1646 4.26846 47.0485 3.56015 48.9426C3.51489 49.0648 3.60881 49.3013 3.71517 49.4099C4.65882 50.3785 5.61153 51.3391 6.588 52.2748C6.71925 52.4004 7.02701 52.4615 7.20126 52.4016C8.08721 52.0972 8.95732 51.7442 9.83196 51.407C10.8073 51.0313 11.7815 50.6534 12.7387 50.2834C10.3977 47.9424 8.08834 45.6353 5.72807 43.275H5.72694ZM9.91795 44.6453C12.07 42.4943 14.2561 40.3083 16.4274 38.1381C15.4916 37.0451 14.5197 35.9102 13.6224 34.8636C11.3844 37.1028 9.10555 39.3816 6.87653 41.6106C7.86884 42.6007 8.91546 43.6462 9.91795 44.6453ZM20.7779 42.8496C19.8625 41.7407 18.9053 40.5832 17.9888 39.4733C15.6998 41.7634 13.5149 43.9483 11.39 46.0732C12.4027 47.087 13.4572 48.1427 14.4756 49.1621C16.5111 47.1232 18.5896 45.0401 20.7768 42.8496H20.7779ZM47.8735 40.0367C47.8792 37.1707 45.6739 35.0695 43.0828 35.2675C42.5929 35.3049 42.0113 35.4667 41.6662 35.7835C40.8119 36.5676 40.0618 37.4671 39.289 38.3384C39.1249 38.5228 38.9722 38.7672 38.9326 39.0048C38.6372 40.7518 39.2018 42.2114 40.5811 43.2931C42.0396 44.4359 43.678 44.6136 45.3447 43.7955C46.991 42.9876 47.7875 41.5869 47.8735 40.0367ZM42.8181 11.8085C41.768 10.7528 40.7158 9.69491 39.7619 8.73541C38.2276 10.2505 36.647 11.8119 35.1206 13.3202C36.329 14.1314 37.585 14.9744 38.8375 15.8151C40.1523 14.4913 41.5146 13.121 42.8181 11.8085ZM44.263 13.1799C42.9233 14.5195 41.5463 15.8943 40.2247 17.2159C41.0484 18.4469 41.8891 19.7063 42.6732 20.8773C44.2064 19.3397 45.7882 17.7545 47.3112 16.227C46.3189 15.2346 45.2722 14.1892 44.263 13.1799ZM41.1729 7.16717C43.747 9.7413 46.3076 12.3007 48.8296 14.8228C49.2324 14.4369 49.6884 14.0002 50.1014 13.6042C47.5318 11.0357 44.9724 8.47743 42.4017 5.90784C41.9989 6.31969 41.5576 6.77229 41.1729 7.16717ZM27.9662 46.9852C29.3964 46.9852 30.8266 46.9874 32.2568 46.9852C33.0081 46.984 33.4324 46.6412 33.4177 46.0607C33.4041 45.5018 32.9923 45.1805 32.2715 45.1793C29.4304 45.1771 26.5881 45.1771 23.7469 45.1793C22.9979 45.1793 22.5724 45.5233 22.586 46.1026C22.5996 46.6616 23.0115 46.9829 23.7322 46.984C25.1432 46.9874 26.5553 46.984 27.9662 46.984V46.9852ZM27.9583 50.5991C29.3885 50.5991 30.8187 50.6014 32.2489 50.5991C33.0013 50.598 33.4268 50.2597 33.4177 49.6826C33.4087 49.1225 32.9968 48.7944 32.2783 48.7944C29.4179 48.7921 26.5575 48.7921 23.6971 48.7944C22.9934 48.7944 22.577 49.1463 22.5849 49.7098C22.5939 50.271 23.0058 50.5969 23.7232 50.5991C25.1341 50.6025 26.5462 50.5991 27.9572 50.5991H27.9583ZM24.8264 52.4276C25.7134 53.6915 26.8325 54.2844 28.2559 54.1916C29.479 54.1124 30.4396 53.5319 31.157 52.4276H24.8264ZM2.72851 51.0743C2.43546 51.8358 2.13109 52.5815 1.86406 53.3407C1.68868 53.842 2.07678 54.3296 2.5554 54.1791C3.36214 53.9257 4.14287 53.5896 4.94509 53.2841C4.18926 52.5306 3.48661 51.8302 2.72738 51.0732L2.72851 51.0743Z" fill="#77C373"/>
<path id="Vector_2" d="M43.3442 42.466C41.8484 42.4592 40.6309 41.2157 40.6501 39.7143C40.6694 38.2433 41.8959 37.0417 43.3725 37.0485C44.8694 37.0553 46.0869 38.2976 46.0665 39.7991C46.0473 41.2701 44.8196 42.4728 43.3442 42.466ZM43.3736 38.8589C42.8848 38.8498 42.4684 39.2526 42.4594 39.7425C42.4503 40.2314 42.8531 40.6477 43.3431 40.6568C43.8296 40.6658 44.2482 40.2608 44.2573 39.7731C44.2663 39.2843 43.8635 38.8679 43.3736 38.8589Z" fill="#77C373"/>
</g>
</svg>
