<svg width="27" height="18" viewBox="0 0 27 18" fill="none" xmlns="http://www.w3.org/2000/svg">
<g id="Group 200">
<path id="Vector" d="M26.5012 2.25C22.0603 5.96589 17.7021 9.61223 13.3261 13.2739C8.95015 9.61284 4.5846 5.95973 0.15163 2.25123C0.0964622 2.69317 0.011261 3.06433 0.0100346 3.43611C0.000226974 7.12122 -0.00406456 10.8069 0.00696945 14.4927C0.0130978 16.4876 1.54122 17.9981 3.52785 17.9987C10.0425 18.0011 16.5571 17.9993 23.0717 17.9999C25.1092 17.9999 26.6305 16.5331 26.6422 14.4841C26.6636 10.7885 26.652 7.09291 26.6422 3.39733C26.641 3.04525 26.5576 2.69317 26.5012 2.25123V2.25Z" fill="white"/>
<path id="Vector_2" d="M25.4424 0.858155C24.8806 0.377004 24.2603 0.0621248 23.5475 0.0371537C22.3402 -0.00547987 21.1303 0.0036559 19.9217 0.00304685C14.4503 0.000610642 8.9789 0.00426495 3.5075 1.59102e-06C2.71716 -0.00060746 1.98781 0.173581 1.33853 0.632197C1.28001 0.673612 1.22519 0.718682 1.16728 0.760097C1.13402 0.78385 1.0989 0.805167 1.03854 0.844147C5.12083 4.20733 9.17171 7.54493 13.2491 10.9038C17.3111 7.55772 21.3681 4.21524 25.4424 0.858155Z" fill="white"/>
</g>
</svg>
