<svg width="40" height="40" viewBox="0 0 40 40" fill="none" xmlns="http://www.w3.org/2000/svg">
<rect width="40" height="40" fill="#77C373"/>
<path d="M19.8087 32.7334C19.5794 32.4293 19.3757 32.1506 19.1719 31.8719C17.6182 29.6676 16.0135 27.514 14.4853 25.2844C13.008 23.1308 11.7089 20.8505 10.7156 18.4182C10.2316 17.2273 9.90051 16.0112 9.95145 14.7444C10.0024 12.9961 10.6137 11.4253 11.658 10.0571C13.3645 7.75145 15.6824 6.40861 18.5096 6.07923C21.4643 5.74985 24.1642 6.43394 26.4311 8.38486C28.0612 9.77838 29.131 11.5519 29.564 13.6549C29.8696 15.0737 29.6659 16.4419 29.131 17.7594C28.0357 20.5718 26.533 23.1561 24.8774 25.6644C23.2982 28.0461 21.5916 30.3517 19.8596 32.632C19.8596 32.632 19.8341 32.6827 19.7832 32.708L19.8087 32.7334ZM24.3679 15.6818C24.3679 13.1735 22.3303 11.1212 19.8087 11.1212C17.287 11.1212 15.2494 13.1481 15.2494 15.6565C15.2494 18.1648 17.287 20.1917 19.8087 20.1917C22.3303 20.1917 24.3934 18.1648 24.3934 15.6565L24.3679 15.6818Z" fill="white"/>
<path d="M17.4394 31.8721C17.1592 31.9735 16.8791 32.0495 16.6243 32.1508C16.5225 32.1761 16.4206 32.2268 16.3442 32.2775C16.0385 32.4802 16.0385 32.7589 16.3442 32.9616C16.5479 33.0883 16.7517 33.1896 16.9809 33.2403C17.8469 33.4937 18.7384 33.5697 19.6299 33.595C20.6487 33.595 21.6676 33.5443 22.6609 33.2403C22.8392 33.1896 23.0175 33.1136 23.1958 33.0376C23.6034 32.8349 23.6288 32.5562 23.2468 32.3028C23.043 32.1508 22.7628 32.0748 22.5336 31.9735C22.4317 31.9228 22.3298 31.9228 22.2025 31.8974C22.4826 31.4921 22.7628 31.112 23.0175 30.7066C23.1194 30.5546 23.2468 30.4026 23.3486 30.2252C23.3996 30.1239 23.476 30.0985 23.5779 30.1239C25.0807 30.2759 26.5834 30.5039 28.0098 30.9853C28.4428 31.1373 28.9013 31.3147 29.3088 31.5427C29.5635 31.6694 29.7928 31.8974 30.022 32.1255C30.2767 32.4042 30.3022 32.7336 30.1239 33.0629C29.9711 33.3416 29.7418 33.519 29.4871 33.671C28.672 34.1777 27.7551 34.4564 26.8127 34.6591C23.9599 35.2672 21.0563 35.4446 18.1526 35.3179C16.1913 35.2165 14.2301 35.0392 12.3198 34.5578C11.5557 34.3551 10.7915 34.1271 10.1038 33.671C9.92552 33.5443 9.72176 33.3923 9.5944 33.2403C9.23781 32.8349 9.23781 32.3788 9.64534 32.0241C9.92552 31.7708 10.2566 31.5427 10.6132 31.3654C11.6066 30.884 12.6764 30.6306 13.7461 30.4533C14.4848 30.3266 15.2235 30.2506 15.9621 30.1492C16.1149 30.1492 16.1913 30.1492 16.2678 30.2759C16.6498 30.808 17.0319 31.34 17.4139 31.8974L17.4394 31.8721Z" fill="white"/>
</svg>
