<svg width="150" height="54" viewBox="0 0 150 54" fill="none" xmlns="http://www.w3.org/2000/svg">
<g id="Logo">
<g id="Group">
<path id="Vector" d="M59.2701 37.6058V10.9856H66.0667V37.6005H59.2701V37.6058Z" fill="white"/>
<path id="Vector_2" d="M92.6975 37.6058L92.909 17.6764L92.8403 17.6076L87.1703 37.6058H82.6745L76.9887 17.6076L76.92 17.6764L77.1315 37.6058H70.8798V10.9856H79.6227L84.9066 28.5085H84.9753L90.1904 10.9856H98.9492V37.6005H92.6975V37.6058Z" fill="white"/>
<path id="Vector_3" d="M130.15 27.6516C129.378 30.7775 127.743 33.3057 125.252 35.2362C122.782 37.1562 119.931 38.1135 116.7 38.1135C112.812 38.1135 109.506 36.7807 106.783 34.1097C104.043 31.4281 102.673 28.1488 102.673 24.2613C102.673 20.3738 104.032 17.1157 106.745 14.4446C109.448 11.8106 112.743 10.4937 116.631 10.4937C121.687 10.4937 125.591 12.5776 128.341 16.7454C129.298 18.1841 129.901 19.6386 130.15 21.0984H123.02C121.835 18.0095 119.693 16.4651 116.594 16.4651C114.499 16.4651 112.77 17.2426 111.416 18.7976C110.115 20.2944 109.469 22.1033 109.469 24.2243C109.469 26.3452 110.12 28.1964 111.416 29.7197C112.786 31.3329 114.526 32.1421 116.631 32.1421C119.535 32.1421 121.661 30.6453 123.02 27.6463H130.15V27.6516Z" fill="white"/>
<path id="Vector_4" d="M143.648 16.957V37.6058H136.851V16.957H131.604V10.9856H148.863V16.957H143.648Z" fill="white"/>
</g>
<path id="Vector_5" fill-rule="evenodd" clip-rule="evenodd" d="M39.1237 44.2966C38.3462 42.6147 37.849 40.462 37.7433 37.7962V35.5484L37.7009 13.3075L36.1935 11.615L36.2359 37.5053C36.2359 38.5261 34.9559 38.5632 34.9559 37.5159L34.9083 10.0812C34.9929 8.65837 33.988 8.48383 33.1417 9.08679L29.8571 11.4246V14.1538C29.8624 14.7938 29.6879 15.3068 30.4654 15.3174L31.793 15.3333V17.0417L29.7567 18.401V19.5117C29.7567 20.2204 29.6773 20.6753 30.4707 20.9292L31.756 21.3364V23.5632L29.8095 24.0921L29.8201 27.4877L31.0684 27.9796L31.0472 30.9733L30.6399 31.4228C30.0476 32.0787 29.8095 32.2003 29.8148 33.0202L29.8307 35.4373V38.0395C29.7408 40.1023 29.4023 41.8477 28.8734 43.297C28.3762 42.0223 28.0588 40.462 27.9848 38.5737V36.7596L27.9531 18.7977L26.7313 17.4278L26.7683 38.3357C26.7683 39.1608 25.7369 39.1873 25.7316 38.341L25.6946 16.1848C25.7634 15.0371 24.9541 14.8943 24.2718 15.3809L21.622 17.2691V19.4747C21.622 19.9877 21.4844 20.4056 22.1138 20.4108L23.1875 20.4267V21.8019L21.5426 22.8967V23.7906C21.5426 24.3671 21.4792 24.7321 22.1191 24.9383L23.1558 25.2663V27.0646L21.5849 27.493L21.5955 30.2381L22.6005 30.6347L22.5846 33.0519L22.2567 33.4115C21.7753 33.9405 21.5849 34.041 21.5902 34.7021L21.6061 36.6538V38.7536C21.495 41.2077 20.9555 43.1065 20.1304 44.5135C19.8818 43.5984 19.7232 42.5406 19.6703 41.34V39.7321L19.6385 23.8382L18.5595 22.627L18.5913 41.1284C18.5913 41.8583 17.6763 41.8847 17.6763 41.1337L17.6445 21.5269C17.7027 20.5113 16.9887 20.3844 16.3857 20.8128L14.0426 22.4842V24.4359C14.0426 24.8907 13.921 25.2557 14.4763 25.2663L15.4284 25.2821V26.4986L13.9739 27.4666V28.2599C13.9739 28.7677 13.9157 29.0903 14.4869 29.2702L15.4072 29.5611V31.1531L14.0162 31.5286V33.9563L14.9153 34.3054L14.8995 36.4475L14.6086 36.7649C14.1854 37.2356 14.0162 37.3202 14.0162 37.9073L14.032 39.6316V41.4934C14.0003 42.2867 13.9051 43.0113 13.7729 43.6778C8.81167 39.7902 5.62231 33.7501 5.62231 26.9588C5.62231 15.2328 15.1269 5.7229 26.8582 5.7229C38.5895 5.7229 48.0941 15.2275 48.0941 26.9588C48.0941 34.1097 44.5557 40.4302 39.1343 44.2807" fill="white"/>
<path id="Vector_6" fill-rule="evenodd" clip-rule="evenodd" d="M47.6552 22.5369L37.6746 13.3074L37.7116 35.7069V37.9706C37.8227 40.6575 38.3198 42.8208 39.1079 44.5186C44.5716 40.6416 48.1418 34.2788 48.1418 27.075C48.1418 25.52 47.9725 24.002 47.6552 22.5422" fill="white"/>
<path id="Vector_7" d="M26.0384 49.6544C13.8258 49.226 4.05677 39.1978 4.05677 26.8794C4.05677 14.561 14.2595 4.08322 26.853 4.08322C39.4464 4.08322 49.6492 14.2913 49.6492 26.8794C49.6492 32.0416 47.9355 36.8018 45.0423 40.6206C44.4076 41.4563 43.6989 41.9429 43.6989 42.9848C43.6989 43.4238 44.2331 44.2331 44.2331 44.2331L45.8145 45.8145H45.952C50.7757 40.9538 53.7588 34.2683 53.7588 26.8794C53.7588 19.4905 50.7493 12.7362 45.8886 7.87553C41.0226 3.00952 34.3001 0 26.8794 0C12.0328 0 0 12.0328 0 26.8794C0 34.3001 3.00952 41.0226 7.87553 45.8833C12.7415 50.7493 19.4587 53.7535 26.8794 53.7535H53.7588L51.6114 51.6061C51.6114 51.6061 50.0511 50.4214 49.4693 50.1781C48.6918 49.8554 46.4651 49.464 46.4651 49.464L26.0384 49.6492V49.6544Z" fill="white"/>
<g id="Group_2">
<path id="Vector_8" d="M53.9598 45.9308V42.5193H54.7426V45.9308H53.9598Z" fill="white"/>
<path id="Vector_9" d="M55.1182 45.9308V42.5193H55.975L56.6044 44.5292L56.615 42.5193H57.3766V45.9308H56.5251L55.8904 43.8204L55.8798 45.9308H55.1182Z" fill="white"/>
<path id="Vector_10" d="M58.1012 45.9308L57.5829 42.5193H58.3868L58.6037 44.9417L58.8734 42.5193H59.6615L59.085 45.9308H58.1118H58.1012Z" fill="white"/>
<path id="Vector_11" d="M59.8572 45.9308V42.5193H61.6026V43.1751H60.64V43.8522H61.4809V44.508H60.64V45.2644H61.6396V45.9202H59.8572V45.9308Z" fill="white"/>
<path id="Vector_12" d="M61.9571 44.778H62.7187V45.0319C62.7187 45.1429 62.7346 45.2276 62.7663 45.2752C62.8139 45.3492 62.8827 45.3862 62.9832 45.3862C63.0625 45.3862 63.1313 45.3598 63.1842 45.3069C63.2318 45.254 63.2582 45.1958 63.2582 45.1218C63.2582 44.9684 63.163 44.8097 62.9726 44.6458L62.6341 44.3919C62.3855 44.1856 62.2427 44.0587 62.2004 44.0111C62.1422 43.937 62.0893 43.8471 62.0523 43.7466C62.0205 43.6461 62.0047 43.5403 62.0047 43.4293C62.0047 43.1119 62.0893 42.8686 62.2638 42.7099C62.4331 42.5513 62.6817 42.4719 63.0043 42.4719C63.327 42.4719 63.5808 42.546 63.7395 42.6994C63.9035 42.8527 63.9828 43.059 63.9828 43.3288V43.6355H63.2476V43.4504C63.2476 43.3499 63.237 43.2653 63.2106 43.1965C63.1736 43.1172 63.0995 43.0749 63.0043 43.0749C62.925 43.0749 62.8562 43.096 62.8086 43.1384C62.761 43.186 62.7346 43.2494 62.7346 43.3288C62.7346 43.4398 62.8351 43.5721 63.0361 43.7413L63.3851 44.0111C63.6972 44.2861 63.8717 44.4606 63.9088 44.5294C63.9934 44.6828 64.0357 44.8785 64.0357 45.1165C64.0357 45.3281 63.9617 45.5132 63.8083 45.6771C63.6126 45.8834 63.3375 45.9892 62.9673 45.9892C62.5971 45.9892 62.3538 45.894 62.1686 45.6983C62.0205 45.5449 61.9518 45.3598 61.9518 45.1429V44.778H61.9571Z" fill="white"/>
<path id="Vector_13" d="M64.2313 43.1808V42.5249H66.0349V43.1808H65.5272V45.9311H64.7444V43.1808H64.2366H64.2313Z" fill="white"/>
<path id="Vector_14" d="M66.273 45.9308V42.5193H67.5106L67.7328 44.2065L67.9602 42.5193H69.1979V45.9308H68.4415V43.2809L67.992 45.9308H67.4789L67.0399 43.2809L67.0293 45.9308H66.2677H66.273Z" fill="white"/>
<path id="Vector_15" d="M69.5734 45.9308V42.5193H71.3188V43.1751H70.3562V43.8522H71.1971V44.508H70.3562V45.2644H71.3558V45.9202H69.5734V45.9308Z" fill="white"/>
<path id="Vector_16" d="M71.705 45.9308V42.5193H72.5618L73.1912 44.5292L73.2018 42.5193H73.9634V45.9308H73.1119L72.4772 43.8204L72.4666 45.9308H71.705Z" fill="white"/>
<path id="Vector_17" d="M74.1802 43.1808V42.5249H75.9838V43.1808H75.476V45.9311H74.6932V43.1808H74.1855H74.1802Z" fill="white"/>
<path id="Vector_18" d="M77.2321 44.8045V44.175H78.3534V44.8045H77.2321Z" fill="white"/>
<path id="Vector_19" d="M79.7603 45.9308V42.5193H80.998L81.2201 44.2065L81.4475 42.5193H82.6852V45.9308H81.9288V43.2809L81.4793 45.9308H80.9662L80.5272 43.2809L80.5166 45.9308H79.755H79.7603Z" fill="white"/>
<path id="Vector_20" d="M82.9126 45.9308L83.542 42.5193H84.584L85.224 45.9308H84.3989L84.3248 45.3225H83.7748L83.6954 45.9308H82.9073H82.9126ZM83.8594 44.7196H84.2508L84.0657 43.0535L83.8594 44.7196Z" fill="white"/>
<path id="Vector_21" d="M85.4302 45.9308V42.5193H86.287L86.9164 44.5292L86.927 42.5193H87.6886V45.9308H86.8371L86.2024 43.8204L86.1918 45.9308H85.4302Z" fill="white"/>
<path id="Vector_22" d="M87.8897 45.9308L88.5191 42.5193H89.5611L90.201 45.9308H89.3759L89.3019 45.3225H88.7518L88.6725 45.9308H87.8844H87.8897ZM88.8364 44.7196H89.2278L89.0427 43.0535L88.8364 44.7196Z" fill="white"/>
<path id="Vector_23" d="M90.3333 45.0001V43.4503C90.3333 43.1277 90.4285 42.8791 90.6189 42.7099C90.7987 42.5459 91.042 42.4666 91.3488 42.4666C91.6555 42.4666 91.883 42.5247 92.0522 42.6411C92.2585 42.7839 92.359 43.0008 92.359 43.3022V43.6831H91.6132V43.3445C91.6132 43.1647 91.5286 43.0748 91.3646 43.0748C91.28 43.0748 91.2165 43.1118 91.1637 43.1912C91.1319 43.2546 91.1213 43.3181 91.1213 43.3869V45.0741C91.1213 45.1746 91.1372 45.2592 91.1742 45.3121C91.206 45.3597 91.2641 45.3862 91.3488 45.3862C91.5127 45.3862 91.5974 45.3015 91.5974 45.1323V44.6933H91.3223V44.0639H92.359V45.9415H91.6714V45.6665C91.5286 45.8886 91.3223 45.9997 91.0579 45.9997C90.7934 45.9997 90.6136 45.8992 90.4866 45.7035C90.3861 45.5395 90.3385 45.3068 90.3385 45.0159L90.3333 45.0001Z" fill="white"/>
<path id="Vector_24" d="M92.7028 45.9308V42.5193H94.4482V43.1751H93.4855V43.8522H94.3265V44.508H93.4855V45.2644H94.4852V45.9202H92.7028V45.9308Z" fill="white"/>
<path id="Vector_25" d="M94.8555 45.9308V42.5193H96.0932L96.3153 44.2065L96.5427 42.5193H97.7804V45.9308H97.0241V43.2809L96.5745 45.9308H96.0614L95.6224 43.2809L95.6119 45.9308H94.8502H94.8555Z" fill="white"/>
<path id="Vector_26" d="M98.1559 45.9308V42.5193H99.9013V43.1751H98.9387V43.8522H99.7796V44.508H98.9387V45.2644H99.9383V45.9202H98.1559V45.9308Z" fill="white"/>
<path id="Vector_27" d="M100.287 45.9308V42.5193H101.144L101.774 44.5292L101.784 42.5193H102.546V45.9308H101.694L101.06 43.8204L101.049 45.9308H100.287Z" fill="white"/>
<path id="Vector_28" d="M102.763 43.1808V42.5249H104.566V43.1808H104.059V45.9311H103.276V43.1808H102.768H102.763Z" fill="white"/>
<path id="Vector_29" d="M105.815 44.8045V44.175H106.936V44.8045H105.815Z" fill="white"/>
<path id="Vector_30" d="M108.322 45.0001V43.4503C108.322 43.1277 108.417 42.8791 108.607 42.7099C108.787 42.5459 109.03 42.4666 109.337 42.4666C109.644 42.4666 109.882 42.5512 110.072 42.7204C110.257 42.8897 110.347 43.133 110.347 43.4556V43.7677H109.565V43.3869C109.565 43.3075 109.554 43.2388 109.538 43.1912C109.501 43.1171 109.438 43.0748 109.337 43.0748C109.237 43.0748 109.178 43.1118 109.141 43.1859C109.12 43.2441 109.11 43.3128 109.11 43.3869V45.0741C109.11 45.1746 109.126 45.2592 109.163 45.3121C109.194 45.3597 109.253 45.3862 109.337 45.3862C109.432 45.3862 109.496 45.3438 109.533 45.2645C109.554 45.2063 109.559 45.1429 109.559 45.0741V44.5716H110.342V45.0053C110.342 45.3068 110.252 45.5448 110.067 45.7194C109.887 45.8992 109.639 45.9891 109.332 45.9891C109.025 45.9891 108.777 45.8992 108.597 45.7247C108.412 45.5501 108.322 45.3068 108.322 45.0053V45.0001Z" fill="white"/>
<path id="Vector_31" d="M110.691 45.0001V43.4503C110.691 43.1277 110.786 42.8791 110.977 42.7099C111.157 42.5459 111.4 42.4666 111.707 42.4666C112.013 42.4666 112.251 42.5512 112.442 42.7204C112.627 42.8897 112.717 43.133 112.717 43.4556V45.0053C112.717 45.3068 112.627 45.5448 112.442 45.7194C112.262 45.8992 112.013 45.9891 111.707 45.9891C111.4 45.9891 111.151 45.8992 110.971 45.7247C110.786 45.5501 110.696 45.3068 110.696 45.0053L110.691 45.0001ZM111.474 43.3816V45.0688C111.474 45.1693 111.49 45.2539 111.527 45.3068C111.559 45.3544 111.617 45.3809 111.701 45.3809C111.797 45.3809 111.86 45.3386 111.897 45.2592C111.918 45.201 111.924 45.1376 111.924 45.0688V43.3816C111.924 43.3022 111.913 43.2335 111.897 43.1859C111.86 43.1118 111.797 43.0695 111.696 43.0695C111.596 43.0695 111.537 43.1065 111.5 43.1806C111.479 43.2388 111.469 43.3075 111.469 43.3816H111.474Z" fill="white"/>
<path id="Vector_32" d="M113.066 45.9308V42.5193H113.923L114.552 44.5292L114.563 42.5193H115.324V45.9308H114.473L113.838 43.8204L113.828 45.9308H113.066Z" fill="white"/>
<path id="Vector_33" d="M115.637 44.778H116.398V45.0319C116.398 45.1429 116.414 45.2276 116.446 45.2752C116.493 45.3492 116.562 45.3862 116.663 45.3862C116.747 45.3862 116.811 45.3598 116.864 45.3069C116.911 45.254 116.938 45.1958 116.938 45.1218C116.938 44.9684 116.842 44.8097 116.652 44.6458L116.314 44.3919C116.065 44.1856 115.922 44.0587 115.88 44.0111C115.822 43.937 115.769 43.8471 115.732 43.7466C115.7 43.6461 115.684 43.5403 115.684 43.4293C115.684 43.1119 115.769 42.8686 115.943 42.7099C116.113 42.5513 116.361 42.4719 116.684 42.4719C117.006 42.4719 117.26 42.546 117.419 42.6994C117.583 42.8527 117.662 43.059 117.662 43.3288V43.6355H116.927V43.4504C116.927 43.3499 116.911 43.2653 116.885 43.1965C116.848 43.1172 116.774 43.0749 116.678 43.0749C116.594 43.0749 116.53 43.096 116.483 43.1384C116.435 43.186 116.409 43.2494 116.409 43.3288C116.409 43.4398 116.509 43.5721 116.716 43.7413L117.065 44.0111C117.377 44.2861 117.551 44.4606 117.588 44.5294C117.673 44.6828 117.715 44.8785 117.715 45.1165C117.715 45.3281 117.641 45.5132 117.488 45.6771C117.297 45.8834 117.017 45.9892 116.647 45.9892C116.276 45.9892 116.033 45.894 115.848 45.6983C115.7 45.5449 115.631 45.3598 115.631 45.1429V44.778H115.637Z" fill="white"/>
<path id="Vector_34" d="M118.038 45.0001V42.5195H118.821V45.0053C118.821 45.127 118.831 45.2116 118.852 45.2645C118.873 45.3227 118.937 45.3491 119.048 45.3491C119.122 45.3491 119.18 45.328 119.217 45.2804C119.254 45.2381 119.27 45.1429 119.27 45.0001V42.5142H120.053V44.9948C120.053 45.2962 119.963 45.5343 119.778 45.7088C119.598 45.8886 119.349 45.9785 119.043 45.9785C118.736 45.9785 118.487 45.8886 118.308 45.7141C118.122 45.5396 118.032 45.2962 118.032 44.9948L118.038 45.0001Z" fill="white"/>
<path id="Vector_35" d="M120.413 45.9308V42.5193H121.195V45.2696H122.047V45.9255H120.407L120.413 45.9308Z" fill="white"/>
<path id="Vector_36" d="M121.867 43.1808V42.5249H123.671V43.1808H123.163V45.9311H122.38V43.1808H121.872H121.867Z" fill="white"/>
<path id="Vector_37" d="M123.353 45.9308L123.983 42.5193H125.025L125.665 45.9308H124.84L124.766 45.3225H124.215L124.136 45.9308H123.348H123.353ZM124.3 44.7196H124.691L124.506 43.0535L124.3 44.7196Z" fill="white"/>
<path id="Vector_38" d="M125.871 45.9308V42.5193H126.728L127.357 44.5292L127.368 42.5193H128.129V45.9308H127.278L126.643 43.8204L126.633 45.9308H125.871Z" fill="white"/>
<path id="Vector_39" d="M128.346 43.1808V42.5249H130.15V43.1808H129.642V45.9311H128.859V43.1808H128.352H128.346Z" fill="white"/>
<path id="Vector_40" d="M131.403 44.8045V44.175H132.525V44.8045H131.403Z" fill="white"/>
<path id="Vector_41" d="M133.778 43.1808V42.5249H135.582V43.1808H135.074V45.9311H134.291V43.1808H133.783H133.778Z" fill="white"/>
<path id="Vector_42" d="M135.799 45.9308V42.5193H136.835C137.184 42.5193 137.438 42.5828 137.592 42.7044C137.75 42.8261 137.83 43.0429 137.83 43.3444C137.83 43.5612 137.803 43.7252 137.75 43.8363C137.682 43.9738 137.549 44.0743 137.354 44.1325C137.497 44.1589 137.608 44.2224 137.687 44.3229C137.772 44.4181 137.814 44.5397 137.814 44.6825V45.6187C137.814 45.6505 137.814 45.6822 137.824 45.7192C137.824 45.8038 137.851 45.8726 137.898 45.9308H137.121C137.095 45.899 137.073 45.8356 137.052 45.7298C137.042 45.6399 137.036 45.5553 137.036 45.4759C137.036 45.3966 137.036 45.3331 137.036 45.2908V44.7407C137.036 44.6455 137.015 44.5768 136.968 44.5292C136.925 44.4816 136.846 44.4604 136.74 44.4604H136.592V45.9308H135.809H135.799ZM136.582 43.1011V43.8786H136.772C136.883 43.8786 136.962 43.8416 137.01 43.7622L137.036 43.6617L137.047 43.4766C137.047 43.3444 137.036 43.2492 137.01 43.2016C136.968 43.1381 136.878 43.1011 136.74 43.1011H136.587H136.582Z" fill="white"/>
<path id="Vector_43" d="M137.877 45.9308L138.507 42.5193H139.549L140.189 45.9308H139.364L139.29 45.3225H138.739L138.66 45.9308H137.872H137.877ZM138.824 44.7196H139.216L139.03 43.0535L138.824 44.7196Z" fill="white"/>
<path id="Vector_44" d="M140.416 45.9308V42.5193H141.199V45.9308H140.416Z" fill="white"/>
<path id="Vector_45" d="M141.58 45.9308V42.5193H142.437L143.066 44.5292L143.077 42.5193H143.838V45.9308H142.987L142.352 43.8204L142.341 45.9308H141.58Z" fill="white"/>
<path id="Vector_46" d="M144.208 45.9308V42.5193H144.991V45.9308H144.208Z" fill="white"/>
<path id="Vector_47" d="M145.367 45.9308V42.5193H146.224L146.853 44.5292L146.864 42.5193H147.625V45.9308H146.774L146.139 43.8204L146.128 45.9308H145.367Z" fill="white"/>
<path id="Vector_48" d="M147.974 45.0001V43.4503C147.974 43.1277 148.069 42.8791 148.26 42.7099C148.44 42.5459 148.683 42.4666 148.99 42.4666C149.297 42.4666 149.524 42.5247 149.693 42.6411C149.899 42.7839 150 43.0008 150 43.3022V43.6831H149.254V43.3445C149.254 43.1647 149.17 43.0748 149.006 43.0748C148.921 43.0748 148.858 43.1118 148.805 43.1912C148.773 43.2546 148.762 43.3181 148.762 43.3869V45.0741C148.762 45.1746 148.778 45.2592 148.815 45.3121C148.847 45.3597 148.905 45.3862 148.99 45.3862C149.154 45.3862 149.238 45.3015 149.238 45.1323V44.6933H148.963V44.0639H150V45.9415H149.312V45.6665C149.17 45.8886 148.963 45.9997 148.699 45.9997C148.434 45.9997 148.255 45.8992 148.128 45.7035C148.027 45.5395 147.98 45.3068 147.98 45.0159L147.974 45.0001Z" fill="white"/>
</g>
</g>
</svg>
