<svg width="50" height="57" viewBox="0 0 50 57" fill="none" xmlns="http://www.w3.org/2000/svg">
<g id="Group 223">
<path id="Vector" d="M27.7428 47.4905C27.9771 46.3189 28.224 45.1497 28.4423 43.9759C28.6272 42.9801 28.7627 41.9751 28.9511 40.9805C29.1647 39.8503 28.9132 38.8614 28.1459 38.0023C27.8668 37.6887 27.6027 37.3614 27.3351 37.0432C28.2631 36.0773 31.8558 36.0428 33.0859 37.0019C32.708 37.4739 32.3359 37.9506 31.95 38.4169C31.4779 38.9854 31.3056 39.678 31.4159 40.3568C31.7972 42.693 32.2543 45.0165 32.685 47.3446C32.6942 47.3928 32.7321 47.4353 32.8091 47.5789C33.1203 46.698 33.4086 45.8974 33.6854 45.0934C34.4825 42.7825 35.275 40.4694 36.0698 38.1573C36.3615 37.3086 36.6969 37.1121 37.5331 37.3166C39.7234 37.853 41.9182 38.371 44.0993 38.9406C46.9742 39.6906 49.0335 41.3388 49.7422 44.3457C49.911 45.0647 49.9742 45.8216 49.9834 46.5624C50.0121 48.8389 49.9972 51.1164 49.9857 53.394C49.9742 55.6417 49.3609 56.2424 47.1028 56.2424C35.7735 56.2424 24.4453 56.2424 13.116 56.2424C12.9058 56.2424 12.6945 56.2413 12.4866 56.2149C11.0658 56.038 10.4617 55.4384 10.4433 54.0074C10.4077 51.291 10.3629 48.5713 10.4491 45.8561C10.5639 42.245 12.7622 39.8078 16.6007 38.8545C18.6773 38.3388 20.7573 37.8323 22.8362 37.3235C23.7125 37.1087 24.0422 37.3086 24.3385 38.1723C25.3619 41.1551 26.3956 44.1332 27.4258 47.1137C27.4694 47.2389 27.5246 47.3595 27.5751 47.4824C27.6302 47.4859 27.6865 47.4882 27.7417 47.4916L27.7428 47.4905Z" fill="white"/>
<path id="Vector_2" d="M40.2184 21.9283C40.1346 25.2178 38.7563 28.2798 35.7276 30.4517C31.602 33.4104 26.2072 32.6512 22.7742 28.7059C18.8358 24.1806 19.4905 16.7369 24.1536 13.0236C28.6571 9.43781 34.9833 10.4026 38.2498 15.1702C39.5649 17.0895 40.2069 19.2143 40.2184 21.9295V21.9283Z" fill="white"/>
<path id="Vector_3" d="M22.1942 9.68816C19.4813 4.70345 13.9418 3.68813 10.0689 5.52237C6.01913 7.44045 3.92877 11.921 5.10489 16.2521C5.76875 18.6974 7.23086 20.55 9.41655 21.8123C11.5908 23.0677 13.9235 23.2836 16.4055 22.7093C16.4629 23.1182 16.4962 23.4926 16.572 23.8579C16.7248 24.586 16.9373 25.3039 17.0544 26.0378C17.1268 26.4938 17.1302 26.9842 17.0395 27.4333C17.0016 27.6217 16.6444 27.872 16.4285 27.8766C14.7837 27.9145 13.1379 27.895 11.492 27.8996C11.0647 27.9008 10.8683 27.6619 10.8017 27.2782C10.7098 26.7511 10.6616 26.2135 10.5249 25.699C10.4698 25.4888 10.2607 25.2878 10.0724 25.1523C9.8932 25.0225 9.6164 25.0282 9.43952 24.8973C8.6631 24.323 8.04977 24.6056 7.37442 25.1373C6.22472 26.0413 6.35566 26.0872 5.25535 24.9731C4.32732 24.0347 3.39699 23.0975 2.45058 22.1775C2.07845 21.8169 2.04859 21.4838 2.3587 21.0738C2.7159 20.6017 3.25916 20.1342 3.32463 19.6151C3.38895 19.1063 2.91 18.5458 2.7561 17.9853C2.62631 17.511 2.36789 17.3479 1.91076 17.3134C1.47431 17.2812 1.04475 17.1675 0.610601 17.0998C0.20631 17.0366 0.00186808 16.7943 0.000719525 16.3957C-0.00157758 14.7498 0.00186808 13.104 0.00761084 11.4592C0.00875939 11.0676 0.24651 10.808 0.606007 10.8195C2.0394 10.8666 2.80434 10.1774 3.14775 8.80837C3.25801 8.37078 3.27639 8.09512 3.01222 7.73103C1.75226 5.99672 1.83036 6.40675 3.21207 4.98255C4.0241 4.14525 4.87058 3.34126 5.67916 2.50052C6.06163 2.10313 6.44869 1.97564 6.86217 2.38797C7.70176 3.22526 8.53102 3.35505 9.62903 2.74976C10.2607 2.40175 10.6156 2.13299 10.6983 1.38528C10.8522 0.000126184 10.9062 0.0058689 12.3339 0.00472035C13.6352 0.00472035 14.9365 0.0150573 16.2378 0.000126143C16.7661 -0.00561662 17.1153 0.183894 17.113 0.738645C17.1084 1.95841 17.67 2.5993 18.8554 2.9944C19.5835 3.23675 20.0142 3.17128 20.5736 2.74402C21.6463 1.9228 21.6659 1.94922 22.6192 2.90252C23.5529 3.83629 24.4741 4.7827 25.4262 5.69695C25.8351 6.08975 25.8041 6.39641 25.5434 6.89029C24.8072 8.28463 23.4599 8.89566 22.1953 9.68702L22.1942 9.68816Z" fill="white"/>
<path id="Vector_4" d="M18.1145 13.8701C18.0881 16.1798 16.2137 18.0313 13.9246 18.006C11.6447 17.9807 9.78984 16.1201 9.79788 13.8643C9.80592 11.527 11.6781 9.65028 13.9878 9.66636C16.2769 9.68244 18.1398 11.581 18.1134 13.8701H18.1145Z" fill="white"/>
</g>
</svg>
