<svg width="53" height="56" viewBox="0 0 53 56" fill="none" xmlns="http://www.w3.org/2000/svg">
<g id="Group 227">
<path id="Vector" d="M41.9444 28.0978H10.1419C9.9552 26.9593 10.1982 26.0471 11.1715 25.354C13.2245 23.8911 15.4799 22.8796 17.8872 22.1601C18.7013 21.9171 19.5285 21.6274 20.2575 21.2012C21.949 20.21 22.6889 18.6789 22.4722 16.718C22.4506 16.5193 22.368 16.2667 22.2244 16.1518C21.3002 15.4168 20.91 14.4208 20.7759 13.2979C20.7328 12.9412 20.5831 12.8155 20.2527 12.6443C19.8541 12.4384 19.4112 12.0074 19.313 11.5956C19.1275 10.8175 19.143 9.98429 19.1478 9.17385C19.149 8.96076 19.4219 8.75007 19.6602 8.40889C19.574 7.84146 19.398 7.0825 19.3537 6.31515C19.143 2.64601 20.8357 0.608526 24.4797 0.118908C26.0982 -0.0989659 27.7083 -0.0415046 29.267 0.493604C31.4409 1.2394 32.6835 2.8567 32.7314 5.15036C32.7554 6.2936 32.5758 7.44043 32.498 8.45558C32.6811 8.78359 32.9469 9.04935 32.9589 9.32588C32.99 10.0166 32.9637 10.7205 32.8535 11.4017C32.747 12.0625 32.3831 12.5748 31.6528 12.7364C31.5307 12.7628 31.3775 12.9591 31.3595 13.0932C31.1991 14.3166 30.8388 15.424 29.7913 16.2033C29.6752 16.2895 29.6357 16.5193 29.6177 16.6881C29.3975 18.6741 30.1397 20.2208 31.8587 21.2168C32.589 21.6394 33.4174 21.9219 34.2326 22.1685C36.5586 22.87 38.7409 23.8504 40.7521 25.2283C41.7864 25.937 42.1682 26.8468 41.9456 28.0978H41.9444Z" fill="#77C373"/>
<path id="Vector_2" d="M15.6427 29.4864C17.8597 29.4864 20.0337 29.4804 22.2076 29.4972C22.4028 29.4984 22.6266 29.6061 22.7882 29.7282C24.8497 31.2821 27.2343 31.2797 29.3101 29.7198C29.4585 29.6085 29.6572 29.4996 29.8344 29.4972C31.8695 29.4816 33.9034 29.4876 35.9385 29.4876C36.0953 29.4876 36.2533 29.4876 36.4688 29.4876C36.3982 29.7558 36.3407 29.9772 36.2689 30.2478C36.8052 30.638 37.3535 31.0319 37.8946 31.4341C38.4704 31.8627 38.5242 32.2074 38.1029 32.7964C37.5689 33.5422 37.0302 34.2856 36.4856 35.023C36.063 35.5953 35.7086 35.6479 35.1221 35.2325C34.5858 34.8519 34.0566 34.4616 33.4988 34.057C32.9014 34.4891 32.31 34.9189 31.6648 35.3858C31.8659 36.019 32.0778 36.6763 32.2825 37.3371C32.486 37.9967 32.3328 38.3091 31.684 38.527C30.8149 38.8179 29.9422 39.1004 29.0683 39.3757C28.3344 39.608 28.0447 39.4583 27.8017 38.7389C27.6234 38.2097 27.4761 37.6699 27.2642 37.1551C27.2056 37.0102 26.9793 36.8678 26.8141 36.8474C26.4813 36.8067 26.1377 36.8618 25.8002 36.8582C24.9035 36.8498 24.9035 36.8462 24.6162 37.7261C24.4869 38.1236 24.3744 38.5282 24.2284 38.9196C24.0584 39.3769 23.7316 39.5864 23.2407 39.4308C22.2531 39.1184 21.2655 38.8035 20.2839 38.4755C19.7787 38.3067 19.6147 37.9416 19.7739 37.4364C19.9894 36.7553 20.2097 36.0765 20.4263 35.3989C19.8757 34.9859 19.3633 34.5765 18.8198 34.2126C18.7097 34.1384 18.4487 34.1791 18.3194 34.2629C17.837 34.5789 17.3857 34.9452 16.9116 35.2744C16.3909 35.636 16.015 35.5737 15.6331 35.059C15.0633 34.2904 14.4994 33.5159 13.9464 32.7342C13.5729 32.2062 13.6363 31.8567 14.1571 31.4604C14.4899 31.2067 14.8346 30.9684 15.1734 30.7218C15.598 30.4138 15.7544 30.0008 15.6427 29.4828V29.4864Z" fill="#77C373"/>
<path id="Vector_3" d="M22.4243 56H11.4935C11.3426 55.5535 11.4971 55.2147 11.8682 55.0303C12.6654 54.6329 13.5046 54.3169 14.2887 53.8979C14.7604 53.6465 15.2416 53.328 15.572 52.921C15.8498 52.5775 15.8581 52.1118 15.4834 51.6724C15.1171 51.2427 14.6838 50.7136 14.6407 50.1988C14.5629 49.2435 14.679 48.2535 14.8609 47.3054C14.922 46.9846 15.3841 46.6542 15.7384 46.4949C16.5297 46.1382 17.3737 46.1681 18.1865 46.4746C19.0077 46.7846 19.3836 47.5388 19.2926 48.5145C19.2627 48.8329 19.3381 49.1609 19.3501 49.4841C19.3669 49.9151 19.2759 50.261 19.0197 50.6752C18.6666 51.2451 18.0488 51.7933 18.2272 52.6062C18.3996 53.3951 19.0125 53.6776 19.6913 53.941C20.5017 54.2558 21.3002 54.6221 22.058 55.0471C22.3094 55.1884 22.4207 55.581 22.5955 55.8575C22.538 55.9042 22.4805 55.9521 22.4231 55.9988L22.4243 56Z" fill="#77C373"/>
<path id="Vector_4" d="M40.6024 55.9964H29.6512C29.4956 55.5714 29.6452 55.2291 30.0091 55.0447C30.8028 54.6413 31.6097 54.2546 32.4381 53.929C33.142 53.6525 33.7692 53.334 33.8674 52.5032C33.8961 52.2602 33.7884 51.9753 33.6687 51.7479C33.391 51.2235 32.8654 50.7435 32.8092 50.2072C32.7122 49.2722 32.8427 48.3002 32.9875 47.3605C33.0318 47.0719 33.3862 46.7463 33.6795 46.5967C34.618 46.1167 35.608 46.1202 36.5561 46.5775C37.3031 46.9367 37.4563 47.6286 37.4444 48.3936C37.4384 48.773 37.5078 49.1525 37.5222 49.5332C37.5378 49.9474 37.4348 50.279 37.1834 50.6693C36.8183 51.2367 36.2245 51.7981 36.3778 52.5858C36.5298 53.364 37.1391 53.6752 37.8286 53.9362C38.6427 54.2438 39.4268 54.6329 40.2073 55.0208C40.5796 55.2063 40.7388 55.5427 40.6012 55.9964H40.6024Z" fill="#77C373"/>
<path id="Vector_5" d="M52.0731 46.8146H40.9209C40.77 46.3776 40.9316 46.046 41.2979 45.8641C42.0773 45.475 42.8674 45.1015 43.6766 44.7807C44.3518 44.5125 44.991 44.2228 45.1167 43.428C45.1598 43.155 45.0461 42.8246 44.9144 42.5648C44.6546 42.0525 44.1231 41.5892 44.08 41.0744C43.9986 40.1 44.0561 39.0717 44.2955 38.126C44.5122 37.2676 45.8099 36.9169 47.1231 37.1623C48.1071 37.3466 48.6458 37.9332 48.7081 38.9005C48.744 39.4583 48.823 40.021 48.7799 40.574C48.7559 40.8889 48.483 41.1774 48.398 41.4982C48.2208 42.1662 47.4738 42.6091 47.6378 43.4016C47.8054 44.2133 48.4315 44.5161 49.1318 44.7891C49.9423 45.1051 50.7396 45.4726 51.4961 45.8976C51.7415 46.0353 51.8421 46.4291 52.0743 46.8146H52.0731Z" fill="#77C373"/>
<path id="Vector_6" d="M11.1858 46.8098H0C0.246605 46.4183 0.356739 46.0257 0.606935 45.8868C1.38506 45.4559 2.20268 45.0895 3.02989 44.7615C3.69069 44.4994 4.29523 44.1989 4.42452 43.4387C4.47121 43.167 4.36227 42.833 4.23059 42.5744C3.96962 42.062 3.42972 41.6 3.39022 41.0876C3.3136 40.0952 3.37106 39.0465 3.62365 38.0876C3.84272 37.2533 5.11765 36.93 6.41412 37.1599C7.35385 37.3263 7.90571 37.8602 8.00029 38.7652C8.06732 39.3997 8.11281 40.0437 8.08169 40.6794C8.06852 40.9523 7.79438 41.2037 7.71298 41.485C7.51546 42.1614 6.77085 42.6283 6.9576 43.4471C7.13717 44.2324 7.75248 44.5197 8.42765 44.7843C9.22014 45.0955 10.0007 45.4451 10.7536 45.8425C11.2133 46.0855 11.2169 46.2112 11.1846 46.8098H11.1858Z" fill="#77C373"/>
<path id="Vector_7" d="M13.7943 35.0039C13.5968 35.2924 13.4855 35.5605 13.2867 35.7234C12.2848 36.5446 11.266 37.3442 10.2425 38.1391C9.81154 38.4743 9.30995 38.4312 9.01307 38.0697C8.70661 37.6962 8.75689 37.2102 9.18665 36.8618C10.209 36.0346 11.2301 35.2038 12.292 34.4293C12.517 34.2653 12.9432 34.2353 13.2197 34.3239C13.4436 34.3958 13.5812 34.7369 13.7931 35.0039H13.7943Z" fill="#77C373"/>
<path id="Vector_8" d="M39.1862 34.0881C39.4939 34.2593 39.7165 34.3491 39.8997 34.4915C40.8765 35.2493 41.8462 36.0143 42.811 36.7864C43.3162 37.191 43.4048 37.6699 43.072 38.0709C42.7632 38.4456 42.2652 38.4647 41.7959 38.0996C40.7903 37.3143 39.7919 36.5218 38.7923 35.7293C38.4631 35.4696 38.2728 35.1188 38.4895 34.7393C38.6379 34.4796 38.942 34.3084 39.1862 34.0881Z" fill="#77C373"/>
<path id="Vector_9" d="M19.9965 45.6139C19.2938 45.5899 18.8712 45.1195 19.022 44.625C19.4267 43.2951 19.8708 41.977 20.3377 40.6674C20.4873 40.2484 20.8668 40.0724 21.3133 40.2089C21.7826 40.3526 22.016 40.7117 21.8736 41.1762C21.4725 42.4858 21.0487 43.7907 20.5747 45.0752C20.4789 45.3361 20.1234 45.5001 19.9953 45.6139H19.9965Z" fill="#77C373"/>
<path id="Vector_10" d="M31.168 40.1587C31.3009 40.276 31.6552 40.4412 31.7534 40.7021C32.2263 41.9663 32.644 43.252 33.0535 44.5401C33.2019 45.007 32.9361 45.4547 32.4908 45.5708C32.0108 45.6965 31.6421 45.4966 31.4852 45.0512C31.0387 43.7763 30.6126 42.4954 30.2199 41.2037C30.0547 40.6614 30.4485 40.1802 31.168 40.1599V40.1587Z" fill="#77C373"/>
</g>
</svg>
