<svg width="40" height="40" viewBox="0 0 40 40" fill="none" xmlns="http://www.w3.org/2000/svg">
<rect width="40" height="40" fill="#77C373"/>
<path d="M27.4216 34.6625C25.8707 34.3253 24.2142 34.229 22.7847 33.6124C14.7964 30.1633 8.97618 24.4469 5.95417 16.2191C5.20266 14.1734 5.26342 11.6909 5.46489 9.45898C5.69833 6.87375 8.77471 4.61288 11.2723 4.66747C12.7785 4.7028 13.7922 5.2905 14.16 6.86411C14.5245 8.42167 14.9562 9.96639 15.4231 11.4983C15.874 12.9787 15.6054 14.1381 14.4222 15.23C12.5354 16.9738 12.4779 17.2211 14.1983 19.148C16.2514 21.4442 18.5091 23.5541 20.7061 25.7218C21.723 26.727 22.7687 26.7784 23.6897 25.5709C24.9785 23.8849 26.5454 23.5637 28.4834 24.3666C29.609 24.8323 30.821 25.0827 31.9914 25.4392C34.5082 26.2068 35.3876 28.4997 34.0317 30.8056C32.5575 33.3073 30.4852 34.7525 27.4248 34.6625H27.4216Z" fill="white"/>
</svg>
