<svg width="53" height="56" viewBox="0 0 53 56" fill="none" xmlns="http://www.w3.org/2000/svg">
<g id="Group 228">
<path id="Vector" d="M37.2919 9.34471C35.8349 9.34471 34.4386 9.34471 33.0412 9.34471C30.9807 9.34354 29.8791 8.23729 29.8779 6.16978C29.8779 4.94425 29.8522 3.71872 29.8896 2.49435C29.906 1.98566 29.7142 1.83247 29.2546 1.87457C29.1202 1.88743 28.9822 1.87457 28.8465 1.87457C20.911 1.87457 12.9754 1.87457 5.03983 1.87457C2.97701 1.87457 1.86607 2.98082 1.86607 5.03897C1.86607 18.4988 1.86607 31.9574 1.86607 45.4173C1.86607 47.4415 2.98168 48.5594 5.00358 48.5594C9.71042 48.5606 14.4173 48.5594 19.1241 48.5594C19.3182 48.5594 19.517 48.5407 19.7065 48.5723C20.2105 48.6565 20.518 48.9641 20.5274 49.4786C20.5356 49.9943 20.235 50.3077 19.7345 50.4094C19.5661 50.4433 19.3861 50.4258 19.2106 50.4258C14.4652 50.4258 9.71861 50.4281 4.97317 50.4258C1.97717 50.4246 0.000877052 48.4554 0.000877052 45.4629C-0.000292351 31.9645 -0.000292351 18.4672 0.000877052 4.96881C0.000877052 1.97748 1.97834 0.00820417 4.97785 0.00820417C12.9719 0.00586536 20.9659 0.01639 28.9599 1.83538e-05C30.4673 -0.00348985 31.7186 0.495845 32.7745 1.57053C34.3825 3.20769 36.0056 4.83082 37.6428 6.43875C38.7151 7.49238 39.2332 8.74013 39.2238 10.2498C39.2016 13.8668 39.2168 17.4849 39.2156 21.103C39.2156 21.2785 39.2261 21.4562 39.1969 21.6269C39.1174 22.097 38.7081 22.4397 38.252 22.4081C37.7655 22.3754 37.4627 22.0994 37.368 21.6246C37.3305 21.4363 37.3492 21.2375 37.3492 21.0422C37.3492 17.444 37.3492 13.8457 37.3469 10.2475C37.3469 9.96215 37.3142 9.67682 37.2931 9.34354L37.2919 9.34471ZM31.7513 3.25213C31.7513 4.43556 31.7314 5.51843 31.7595 6.59895C31.7735 7.13337 32.1618 7.45613 32.736 7.47133C33.3768 7.4877 34.0188 7.47601 34.6608 7.47601C35.0712 7.47601 35.4817 7.47601 35.9775 7.47601C34.5345 6.03413 33.1873 4.68698 31.7513 3.25096V3.25213Z" fill="#77C373"/>
<path id="Vector_2" d="M35.4805 41.0905C37.838 41.0905 40.1113 41.0905 42.3846 41.0905C44.0382 41.0905 45.6905 41.0881 47.3441 41.0905C48.2235 41.0916 48.5521 41.4191 48.5497 42.2739C48.5345 49.1348 42.9939 55.2484 36.181 55.9232C28.505 56.6833 21.9996 51.7344 20.6981 44.1449C19.448 36.8572 24.6963 29.4701 31.998 28.2574C32.7628 28.13 33.5404 28.0645 34.3146 28.0282C35.139 27.9897 35.477 28.3498 35.4781 29.1871C35.4817 32.921 35.4793 36.6549 35.4793 40.3888C35.4793 40.5993 35.4793 40.8098 35.4793 41.0893L35.4805 41.0905ZM33.613 29.9765C28.1822 30.1764 22.2966 35.0248 22.4101 42.2973C22.5142 49.0459 28.2477 54.4637 35.1039 54.1363C42.6045 53.7785 46.529 47.4111 46.5734 42.9568H45.9408C42.2852 42.9568 38.6285 42.9568 34.973 42.9568C33.8714 42.9568 33.6141 42.6949 33.6141 41.5734C33.6141 37.9179 33.6141 34.2612 33.6141 30.6056V29.9753L33.613 29.9765Z" fill="#77C373"/>
<path id="Vector_3" d="M37.3481 31.7575C37.3481 29.6783 37.3469 27.5979 37.3481 25.5187C37.3481 24.5785 37.665 24.2768 38.6204 24.2885C45.4743 24.3704 51.5025 29.8759 52.1796 36.6771C52.2299 37.1788 52.2743 37.684 52.279 38.188C52.2849 38.8405 51.9259 39.2171 51.2803 39.2183C46.9664 39.2264 42.6513 39.2276 38.3374 39.2183C37.6814 39.2171 37.3516 38.8288 37.3504 38.1143C37.3446 35.9966 37.3481 33.8776 37.3481 31.7598V31.7575ZM39.2554 26.2297V37.3227H50.3472C50.118 31.637 44.8533 26.3747 39.2554 26.2297Z" fill="#77C373"/>
<path id="Vector_4" d="M15.7866 13.5698C17.2355 12.1209 18.6037 10.7515 20.0105 9.34355C19.5895 9.34355 19.1708 9.35408 18.7522 9.34122C18.15 9.3225 17.7559 8.95765 17.7442 8.43142C17.7313 7.88063 18.1371 7.48771 18.7697 7.48187C19.9555 7.47017 21.1425 7.46783 22.3294 7.48187C22.9796 7.49005 23.3316 7.84906 23.3386 8.50743C23.3515 9.69321 23.3515 10.8801 23.3386 12.0671C23.3316 12.6682 22.9539 13.0634 22.4288 13.0751C21.8815 13.0868 21.5003 12.6775 21.4781 12.0472C21.4711 11.8332 21.4769 11.6192 21.4769 11.4052C21.4769 11.2146 21.4769 11.024 21.4769 10.7234C21.2699 10.907 21.1273 11.0193 20.9998 11.1468C19.5813 12.5617 18.1663 13.9802 16.7478 15.394C16.0883 16.0512 15.6626 16.0571 15.016 15.4069C14.3868 14.7754 13.7705 14.1299 13.1215 13.4634C12.9262 13.6423 12.7812 13.7639 12.6479 13.8972C11.2435 15.2981 9.84135 16.7014 8.43807 18.1035C8.31411 18.2275 8.19483 18.3585 8.05568 18.4614C7.63937 18.7701 7.21955 18.7537 6.83599 18.4088C6.46646 18.0755 6.42904 17.5492 6.77401 17.1493C7.10261 16.7669 7.47682 16.4231 7.83466 16.0653C9.29173 14.607 10.7488 13.1476 12.2094 11.6929C12.8643 11.0404 13.2876 11.0392 13.9413 11.6929C14.5716 12.322 15.1914 12.9629 15.7901 13.5709L15.7866 13.5698Z" fill="#77C373"/>
<path id="Vector_5" d="M26.144 20.5511C26.144 22.0292 26.1475 23.5073 26.1429 24.9855C26.1405 25.8216 25.8131 26.1467 24.9746 26.1502C23.866 26.1549 22.7574 26.1572 21.6488 26.1502C20.8876 26.1443 20.5461 25.804 20.5438 25.0404C20.5391 22.0456 20.5379 19.0496 20.5438 16.0547C20.5449 15.2935 20.8887 14.9555 21.6523 14.9497C22.7808 14.9415 23.9081 14.9415 25.0366 14.9497C25.7979 14.9555 26.1382 15.2958 26.1417 16.0582C26.1487 17.5563 26.144 19.0531 26.144 20.5511ZM22.4511 16.8406V24.2359H24.2461V16.8406H22.4511Z" fill="#77C373"/>
<path id="Vector_6" d="M13.0725 21.9462C13.0725 20.9159 13.0666 19.8845 13.0748 18.8543C13.0806 18.093 13.4198 17.755 14.1846 17.7504C15.313 17.7422 16.4403 17.7422 17.5688 17.7504C18.3289 17.7562 18.6704 18.0965 18.6727 18.8601C18.6786 20.9218 18.6797 22.9834 18.6727 25.0451C18.6704 25.8052 18.3266 26.1443 17.563 26.1502C16.4345 26.1584 15.3072 26.1584 14.1787 26.1502C13.4186 26.1443 13.0806 25.804 13.0748 25.0404C13.0666 24.0102 13.0725 22.9788 13.0725 21.9485V21.9462ZM16.7666 24.2569V19.6623H14.9704V24.2569H16.7666Z" fill="#77C373"/>
<path id="Vector_7" d="M13.5238 31.7528C11.2481 31.7528 8.97248 31.7505 6.69682 31.7551C6.25128 31.7551 5.83146 31.6394 5.71803 31.1927C5.64319 30.8968 5.68646 30.4688 5.8607 30.2396C6.02324 30.0256 6.42552 29.9098 6.72722 29.9016C8.06853 29.8666 9.411 29.8864 10.7535 29.8864C13.8267 29.8864 16.8999 29.8864 19.973 29.8864C20.1087 29.8864 20.2455 29.8841 20.3812 29.8864C21.0606 29.9016 21.4804 30.2677 21.471 30.8337C21.4617 31.3961 21.0419 31.7423 20.3508 31.7516C19.9613 31.7575 19.5731 31.7516 19.1837 31.7516C17.2975 31.7516 15.41 31.7516 13.5238 31.7516V31.7528Z" fill="#77C373"/>
<path id="Vector_8" d="M5.60346 23.2922C5.60346 22.7086 5.5906 22.1251 5.60697 21.5416C5.62451 20.9218 5.97416 20.5628 6.59394 20.5546C7.7996 20.5382 9.00525 20.5394 10.2109 20.5546C10.8307 20.5628 11.1897 20.9218 11.1979 21.5404C11.2143 22.7461 11.2143 23.9517 11.1979 25.1574C11.1897 25.7771 10.8307 26.1362 10.2121 26.1443C9.00642 26.1607 7.80077 26.1607 6.59511 26.1443C5.97533 26.1362 5.62451 25.7771 5.60697 25.1585C5.58943 24.5364 5.60346 23.9143 5.60346 23.2922ZM9.29526 24.2593V22.4642H7.5014V24.2593H9.29526Z" fill="#77C373"/>
<path id="Vector_9" d="M11.6715 42.958C10.0378 42.958 8.40414 42.9603 6.77049 42.9568C6.03493 42.9557 5.60693 42.606 5.60693 42.0248C5.60693 41.4436 6.03377 41.0928 6.76932 41.0916C10.0366 41.0893 13.3039 41.0893 16.5712 41.0916C17.308 41.0916 17.7348 41.4413 17.7348 42.0225C17.7348 42.6037 17.3068 42.9545 16.5724 42.9557C14.9388 42.9592 13.3051 42.9568 11.6715 42.9568V42.958Z" fill="#77C373"/>
<path id="Vector_10" d="M9.28356 37.3554C8.42755 37.3554 7.57155 37.3613 6.71672 37.3542C6.02443 37.3484 5.61046 36.9952 5.60696 36.4281C5.60345 35.8609 6.01975 35.4937 6.70619 35.4914C8.45679 35.4855 10.2062 35.4855 11.9568 35.4914C12.6456 35.4937 13.0631 35.8516 13.0666 36.4176C13.0701 36.9824 12.6503 37.3496 11.9673 37.3554C11.0727 37.3636 10.1781 37.3577 9.28356 37.3577V37.3554Z" fill="#77C373"/>
<path id="Vector_11" d="M31.708 14.9426C31.397 14.9426 31.0847 14.9613 30.7748 14.938C30.2533 14.8982 29.8943 14.5193 29.8826 14.034C29.8709 13.5253 30.2416 13.1114 30.79 13.0891C31.4309 13.0634 32.0741 13.0622 32.7149 13.0903C33.2353 13.1125 33.5966 13.5066 33.6071 13.9919C33.6188 14.4994 33.2458 14.9017 32.6985 14.9391C32.3699 14.9613 32.0378 14.9438 31.7069 14.9426H31.708Z" fill="#77C373"/>
<path id="Vector_12" d="M31.7513 20.5429C31.4204 20.5429 31.0882 20.5651 30.7596 20.5382C30.2416 20.4961 29.8861 20.1067 29.8826 19.6202C29.8791 19.1338 30.2322 18.7198 30.748 18.6953C31.4075 18.6637 32.0705 18.6637 32.7301 18.6953C33.247 18.7186 33.6048 19.1244 33.6071 19.6109C33.6107 20.0962 33.2551 20.495 32.7418 20.5394C32.4132 20.5675 32.0811 20.5452 31.7501 20.5452L31.7513 20.5429Z" fill="#77C373"/>
<path id="Vector_13" d="M31.7735 26.1467C31.4425 26.1467 31.1104 26.1665 30.7818 26.142C30.2369 26.1022 29.865 25.6929 29.8826 25.1866C29.8989 24.7001 30.2603 24.3154 30.783 24.2943C31.4238 24.2686 32.067 24.2674 32.7078 24.2943C33.2294 24.3166 33.5919 24.7048 33.6071 25.1889C33.6235 25.6953 33.2504 26.1034 32.7055 26.1432C32.3956 26.1654 32.0834 26.1478 31.7723 26.1467H31.7735Z" fill="#77C373"/>
<path id="Vector_14" d="M16.804 37.3495C16.4731 37.3495 16.141 37.3718 15.8124 37.3437C15.2966 37.3004 14.9423 36.904 14.9435 36.4187C14.9447 35.931 15.299 35.5253 15.817 35.5007C16.4766 35.4703 17.1396 35.4703 17.7992 35.5007C18.3149 35.5253 18.6692 35.9369 18.668 36.4234C18.6669 36.9087 18.3102 37.3016 17.7933 37.3437C17.4647 37.3706 17.1326 37.3484 16.8017 37.3484L16.804 37.3495Z" fill="#77C373"/>
</g>
</svg>
