<svg width="67" height="56" viewBox="0 0 67 56" fill="none" xmlns="http://www.w3.org/2000/svg">
<g id="Group 226">
<path id="Vector" d="M66.5473 45.1613C66.3845 45.875 66.2751 46.6069 66.0498 47.301C64.4636 52.1859 61.1284 55.1851 56.0534 55.8714C51.1411 56.5356 47.2069 54.6082 44.377 50.5268C44.0905 50.114 43.8209 49.9759 43.3391 49.9759C29.7588 49.9876 16.1784 49.9863 2.59938 49.985C1.22546 49.985 0.333388 49.369 0.0651148 48.2256C0.00651148 47.9769 0.00260459 47.7099 0.00260459 47.4521C0 35.4332 0 23.413 0 11.3915C0 9.748 0.884258 8.84942 2.51343 8.8429C4.3106 8.83639 6.10907 8.83118 7.90623 8.84681C8.76966 8.85462 9.25281 9.51359 8.93244 10.2116C8.69412 10.7299 8.224 10.7911 7.72652 10.7911C6.03744 10.7898 4.34706 10.8042 2.65798 10.7833C2.14097 10.7768 1.93521 10.9253 1.93651 11.4866C1.95214 20.4971 1.94693 29.5064 1.94823 38.517C1.94823 38.6459 1.96386 38.7749 1.97688 38.9963H2.67491C16.0391 38.9963 29.4019 38.9936 42.7661 39.008C43.2675 39.008 43.5097 38.8556 43.7558 38.4089C45.9853 34.3549 49.4013 32.1423 54.0466 31.8857C54.2823 31.8727 54.5167 31.8623 54.8462 31.8453C54.8462 31.1421 54.841 30.4597 54.8475 29.776C54.8553 29.0207 55.2277 28.5922 55.8463 28.6078C56.435 28.6235 56.784 29.0428 56.7931 29.7643C56.8009 30.392 56.7658 31.0223 56.8126 31.6474C56.827 31.8297 57.0288 32.1071 57.1968 32.154C62.4529 33.6451 65.5575 37.0532 66.4444 42.4604C66.4574 42.5411 66.5095 42.6153 66.5421 42.6935V45.1626L66.5473 45.1613ZM54.4398 54.056C59.9967 54.0755 64.5626 49.5683 64.5965 44.0296C64.6316 38.3972 60.1218 33.8392 54.4972 33.8222C48.9064 33.804 44.351 38.3243 44.334 43.9072C44.3171 49.4823 48.8517 54.0365 54.4385 54.0573L54.4398 54.056ZM1.94954 40.9783C1.94954 41.2414 1.94954 41.4745 1.94954 41.7076C1.94954 43.5048 1.94954 45.302 1.94954 47.0991C1.94954 47.7242 2.25514 48.0368 2.86635 48.0368C16.0104 48.0368 29.1545 48.0368 42.2985 48.0368H43.0448C42.8273 47.0978 42.6254 46.2227 42.4105 45.2915H41.6526C33.7268 45.2915 25.8024 45.2915 17.8766 45.2915C17.6604 45.2915 17.439 45.3124 17.2281 45.2785C16.6902 45.1926 16.3633 44.8787 16.3633 44.3174C16.3633 43.7561 16.6889 43.4423 17.2281 43.3563C17.439 43.3225 17.6604 43.3433 17.8766 43.3433C25.7802 43.3433 33.6839 43.3433 41.5875 43.3433H42.3637C42.4835 42.5307 42.5968 41.7727 42.714 40.9797H1.94954V40.9783Z" fill="#77C373"/>
<path id="Vector_2" d="M33.0783 8.84161C33.0783 8.53166 33.0783 8.29855 33.0783 8.06674C33.0783 6.13935 33.0705 4.21195 33.0809 2.28325C33.0887 0.781703 33.8714 0.0107439 35.3703 0.00423246C36.67 -0.000976722 37.9697 -0.00227902 39.2694 0.00553476C40.0573 0.0107439 40.4675 0.350643 40.4688 0.966629C40.4688 1.57871 40.0547 1.93944 39.2746 1.94726C37.8929 1.96158 36.5111 1.95116 35.0799 1.95116V12.4216C35.257 12.225 35.3847 12.1 35.4928 11.9606C36.8523 10.1921 38.2054 8.41967 39.565 6.65245C40.4115 5.55201 41.2984 5.54941 42.1514 6.65766C44.3692 9.54094 46.5792 12.4307 48.7931 15.3166C48.9494 15.5211 49.1135 15.7203 49.3231 15.9834C49.6122 15.6148 49.8766 15.2841 50.1331 14.9481C51.3716 13.3332 52.6036 11.7132 53.8473 10.1022C54.725 8.96403 55.5911 8.97184 56.4714 10.114C57.3153 11.2079 58.154 12.3044 59.0838 13.5142V1.99023C58.8377 1.97721 58.5877 1.95377 58.3376 1.95377C53.7887 1.95116 49.2411 1.95377 44.6922 1.94986C44.4122 1.94986 44.1244 1.95247 43.8522 1.89517C43.3313 1.78707 43.0825 1.42373 43.1112 0.905421C43.1385 0.413153 43.4172 0.103207 43.9121 0.0289761C44.1244 -0.00358131 44.3445 0.00423246 44.5606 0.00423246C49.2606 0.00423246 53.9606 0.00293016 58.6606 0.00423246C60.3262 0.00423246 61.0815 0.758262 61.0829 2.41478C61.0829 7.61354 61.0829 12.811 61.0829 18.0098C61.0829 19.665 60.3119 20.4386 58.6658 20.4425C58.0654 20.4425 57.4651 20.4425 56.7996 20.4425C56.7996 21.7369 56.7996 22.9663 56.7996 24.1944C56.7996 24.4106 56.8087 24.628 56.7957 24.8442C56.7579 25.4537 56.3724 25.8444 55.8216 25.8431C55.2707 25.8418 54.867 25.4498 54.8579 24.8377C54.8383 23.6253 54.8514 22.4115 54.8501 21.1991C54.8501 20.966 54.8501 20.7342 54.8501 20.4412H54.0179C47.8672 20.4412 41.7151 20.4412 35.5644 20.4412C33.8245 20.4412 33.0809 19.6962 33.0783 17.9499C33.0757 15.8271 33.0783 13.7044 33.0783 11.5816C33.0783 11.3485 33.0783 11.1154 33.0783 10.7898H32.1888C25.9287 10.7898 19.6699 10.7898 13.4097 10.7885C13.1284 10.7885 12.8432 10.7911 12.5684 10.743C12.0462 10.6518 11.774 10.308 11.7858 9.78577C11.7962 9.26225 12.084 8.93668 12.6101 8.86375C12.8445 8.83119 13.0855 8.84161 13.3238 8.84161C19.6269 8.84161 25.93 8.84161 32.2318 8.84161H33.077H33.0783ZM48.7423 18.4539C46.0752 14.9767 43.4875 11.6012 40.9012 8.22953C40.8074 8.29204 40.7618 8.30897 40.7371 8.34023C38.9022 10.726 37.0685 13.1131 35.2401 15.5029C35.1515 15.6188 35.0513 15.7672 35.0487 15.9027C35.0317 16.74 35.0395 17.5787 35.0395 18.4539H48.741H48.7423ZM59.2323 18.4929C59.1255 17.7584 59.2258 17.0239 58.9145 16.5733C57.749 14.8843 56.4493 13.2889 55.1574 11.6025C53.6103 13.621 52.0879 15.6044 50.5837 17.5657C50.9067 18.2715 51.3547 18.5476 52.1257 18.5138C53.7679 18.4421 55.414 18.4916 57.0588 18.4916H59.2323V18.4929Z" fill="#77C373"/>
<path id="Vector_3" d="M20.7742 25.7702C20.7742 23.4338 20.769 21.0962 20.7755 18.7599C20.7807 17.2935 21.7483 16.744 23.0207 17.4954C26.9484 19.8135 30.8722 22.1368 34.7908 24.4692C36.0202 25.2011 36.0306 26.3093 34.813 27.0347C30.8748 29.3775 26.9328 31.7125 22.9855 34.0397C21.747 34.7703 20.782 34.2182 20.7768 32.7804C20.7677 30.4441 20.7742 28.1065 20.7742 25.7702ZM33.1499 25.7558C29.6533 23.6852 26.2452 21.6679 22.7641 19.6064V31.9066C26.2491 29.8424 29.6598 27.8226 33.1499 25.7545V25.7558Z" fill="#77C373"/>
<path id="Vector_4" d="M45.8577 6.60951C45.8629 4.58574 47.4803 2.98131 49.5002 2.99694C51.4875 3.01257 53.0828 4.61048 53.0997 6.60039C53.1167 8.60462 51.4888 10.2416 49.4768 10.2455C47.4595 10.2494 45.8538 8.63458 45.8577 6.60821V6.60951ZM49.4807 8.29077C50.4248 8.28686 51.1632 7.52632 51.1411 6.58216C51.1189 5.66274 50.3844 4.94778 49.465 4.95168C48.5196 4.95559 47.7942 5.70571 47.8124 6.6616C47.8293 7.58362 48.5586 8.29468 49.4807 8.29077Z" fill="#77C373"/>
<path id="Vector_5" d="M53.4305 38.6342C53.6506 37.3528 53.8511 37.0584 54.4866 37.0689C55.1326 37.0793 55.3605 37.4257 55.5063 38.6798C55.9647 38.6798 56.4349 38.6655 56.9037 38.6837C57.5679 38.7085 57.9716 39.0861 57.9742 39.6565C57.9768 40.2269 57.5705 40.6163 56.9115 40.6241C55.7863 40.6385 54.6598 40.6215 53.5346 40.6319C52.64 40.6398 52.2584 40.9758 52.248 41.7324C52.2376 42.4682 52.6374 42.8537 53.5021 42.8875C54.1728 42.9136 54.8448 42.881 55.5154 42.9005C57.8153 42.9696 59.1436 44.7993 58.499 47.0028C58.1917 48.0537 57.491 48.6905 56.4323 48.9367C56.1392 49.0044 55.8397 49.0383 55.5011 49.0943C55.3878 49.804 55.5975 50.8211 54.4345 50.7925C53.3614 50.7664 53.5425 49.8288 53.4643 49.0513C52.9512 49.0513 52.4616 49.0617 51.9719 49.0487C51.2804 49.0318 50.8337 48.6319 50.8415 48.0576C50.8493 47.4833 51.2895 47.1096 51.9966 47.1044C53.144 47.0965 54.2913 47.1096 55.4386 47.0991C56.3528 47.09 56.6849 46.7827 56.6875 45.9857C56.6901 45.2186 56.3242 44.8774 55.4373 44.8501C54.6807 44.8279 53.9188 44.8761 53.1661 44.811C51.0707 44.6313 49.8648 42.8693 50.4235 40.8416C50.7334 39.7164 51.4744 39.0314 52.6126 38.7801C52.8861 38.7202 53.1635 38.6811 53.4344 38.6342H53.4305Z" fill="#77C373"/>
<path id="Vector_6" d="M47.3814 42.963C47.9167 42.9735 48.366 43.4553 48.336 43.9853C48.3073 44.4997 47.8633 44.9113 47.3476 44.9022C46.8032 44.893 46.3747 44.432 46.4008 43.8851C46.4255 43.3694 46.8696 42.9513 47.3814 42.9617V42.963Z" fill="#77C373"/>
<path id="Vector_7" d="M61.6858 44.9022C61.1675 44.9165 60.7274 44.5115 60.6974 43.9932C60.6661 43.4501 61.0959 42.9787 61.6351 42.9644C62.169 42.9501 62.6378 43.4098 62.6339 43.9437C62.63 44.4555 62.2016 44.8892 61.6858 44.9035V44.9022Z" fill="#77C373"/>
<path id="Vector_8" d="M5.42157 44.4307C5.39031 44.966 4.90977 45.3762 4.36671 45.3345C3.83798 45.2928 3.46813 44.8696 3.49287 44.3317C3.51761 43.7757 3.9656 43.385 4.5308 43.4293C5.04521 43.4696 5.45152 43.9267 5.42287 44.4307H5.42157Z" fill="#77C373"/>
<path id="Vector_9" d="M8.46633 43.4254C9.01069 43.4202 9.46389 43.8695 9.45086 44.4021C9.43914 44.9113 9.00678 45.3333 8.48977 45.3398C7.92978 45.3463 7.51174 44.9243 7.52216 44.3617C7.53258 43.8265 7.92978 43.4319 8.46633 43.4254Z" fill="#77C373"/>
<path id="Vector_10" d="M13.4801 44.4099C13.4619 44.9451 12.9905 45.3671 12.4461 45.3358C11.9135 45.3046 11.5371 44.8904 11.5514 44.3526C11.5657 43.7939 12.0046 43.3941 12.5685 43.428C13.0842 43.4579 13.4984 43.9033 13.4801 44.4112V44.4099Z" fill="#77C373"/>
</g>
</svg>
