<svg width="61" height="57" viewBox="0 0 61 57" fill="none" xmlns="http://www.w3.org/2000/svg">
<g id="Group 225">
<path id="Vector" d="M45.7257 39.0269C46.5735 39.8735 47.3999 40.6988 48.2784 41.5755C48.4859 41.3485 48.7017 41.0948 48.9364 40.8596C49.3549 40.4404 49.8143 40.4381 50.2305 40.8542C53.5522 44.1725 56.8722 47.4925 60.1905 50.8143C60.5937 51.218 60.5901 51.6821 60.1852 52.0882C58.6564 53.6217 57.1247 55.1528 55.5918 56.6822C55.1567 57.1167 54.7068 57.1049 54.2534 56.6515C51.6002 54.0007 48.9488 51.3481 46.2968 48.6961C45.6566 48.0559 45.0146 47.4168 44.3761 46.7742C43.9185 46.3137 43.918 45.8744 44.3797 45.4151C44.6019 45.1934 44.839 44.9865 45.0435 44.7967C44.1798 43.9325 43.3558 43.1078 42.5187 42.2701C42.012 42.5515 41.4522 42.8542 40.9048 43.1769C40.8421 43.2142 40.8226 43.3649 40.8226 43.4631C40.8173 44.8115 40.8196 46.16 40.819 47.509C40.819 48.2137 40.5181 48.5146 39.8129 48.5146C28.4335 48.5146 17.0546 48.5146 5.67522 48.5146C4.96582 48.5146 4.66373 48.2161 4.66314 47.5149C4.66196 46.4124 4.66314 45.3099 4.66314 44.2074C4.66314 44.1015 4.66314 43.9957 4.66314 43.8526H4.31849C3.21596 43.8526 2.11343 43.8526 1.0109 43.8526C0.303862 43.8526 9.45084e-07 43.5506 9.45084e-07 42.8512C9.45084e-07 36.6694 9.45084e-07 30.4875 9.45084e-07 24.3062C9.45084e-07 16.5596 9.45084e-07 8.81287 9.45084e-07 1.06619C-0.000590224 0.278753 0.276077 0.000312685 1.06351 0.000312685C7.98374 0.000312685 14.9034 0.000312685 21.8236 0.000312685C26.2526 0.000312685 30.6817 -0.00205199 35.1107 0.00622438C35.3377 0.00622438 35.5872 0.0517444 35.7858 0.154017C36.0696 0.300035 36.1571 0.588526 36.1559 0.907166C36.1512 2.03926 36.1541 3.17134 36.1541 4.30343C36.1541 4.40925 36.1541 4.51448 36.1541 4.66227C36.3019 4.66227 36.416 4.66227 36.5307 4.66227C37.6232 4.66227 38.7163 4.66109 39.8087 4.66286C40.5211 4.66405 40.8185 4.95963 40.8179 5.6649C40.8161 9.74987 40.8125 13.8349 40.8108 17.9198C40.8108 18.8551 40.822 19.7903 40.8131 20.7249C40.8114 20.9253 40.887 21.0146 41.0555 21.1039C45.1044 23.2528 47.4011 26.6059 47.8179 31.1727C48.0662 33.8938 47.3852 36.4258 45.9132 38.7361C45.8499 38.8354 45.7855 38.9341 45.7257 39.0263V39.0269ZM39.1454 43.9053C33.7835 45.1473 29.2002 43.8988 25.827 39.488C22.802 35.5325 22.4952 31.136 24.5991 26.6248C25.5834 24.5143 27.1412 22.8632 29.131 21.6507C32.2654 19.7406 35.6197 19.3546 39.1454 20.3259V6.34356H6.33852V46.8481H39.1449V43.9047L39.1454 43.9053ZM35.5659 42.7223C41.4339 42.7271 46.1951 37.9847 46.2058 32.125C46.2158 26.2394 41.4741 21.4745 35.5996 21.468C29.7187 21.4621 24.9668 26.2063 24.9598 32.0925C24.9527 37.9504 29.7086 42.717 35.5653 42.7217L35.5659 42.7223ZM4.65487 42.1844C4.65487 42.0543 4.65487 41.9485 4.65487 41.8427C4.65782 34.1847 4.66196 26.5267 4.66255 18.8692C4.66255 14.7648 4.65723 10.6603 4.65487 6.55579C4.65487 6.21114 4.64955 5.86648 4.65664 5.52242C4.66728 5.03057 4.96287 4.71134 5.44999 4.6605C5.56704 4.64808 5.68587 4.65222 5.8041 4.65222C10.5778 4.65222 15.3515 4.65222 20.1252 4.65222C24.7812 4.65222 29.4367 4.65222 34.0927 4.65222C34.2181 4.65222 34.3428 4.65222 34.4811 4.65222V1.67214H1.66769V42.185H4.65487V42.1844ZM54.9385 54.9099C56.0878 53.7595 57.2595 52.5872 58.3862 51.4586C56.2533 49.3257 54.0997 47.1721 51.9573 45.0297C50.8163 46.1671 49.647 47.3323 48.5025 48.4738C50.6549 50.6263 52.8085 52.7805 54.9385 54.9099ZM49.5802 42.6165C48.4309 43.7705 47.2604 44.9445 46.1071 46.1026C46.4866 46.4822 46.8862 46.883 47.2587 47.2554C48.4221 46.1097 49.6032 44.9463 50.769 43.7983C50.3652 43.3969 49.9638 42.9978 49.5802 42.6165ZM43.9582 41.1546C44.7166 41.9124 45.4981 42.694 46.2448 43.44C46.4789 43.226 46.7437 42.9842 46.9891 42.7602C46.2034 41.9786 45.4248 41.2042 44.6546 40.4381C44.4228 40.6769 44.1716 40.9358 43.9587 41.1551L43.9582 41.1546Z" fill="#77C373"/>
<path id="Vector_2" d="M22.7672 14.3102C26.9302 14.3102 31.0938 14.3102 35.2568 14.3102C35.3549 14.3102 35.4536 14.309 35.5518 14.3108C36.0744 14.3208 36.4397 14.6631 36.4356 15.1384C36.4314 15.6137 36.0667 15.9513 35.5423 15.9637C35.4832 15.9648 35.4241 15.9637 35.365 15.9637C26.9497 15.9637 18.535 15.9637 10.1197 15.9619C9.96362 15.9619 9.80163 15.9601 9.65207 15.9223C9.26012 15.8236 9.00769 15.4482 9.04789 15.055C9.08868 14.6542 9.39964 14.3474 9.80459 14.3155C9.92223 14.306 10.0405 14.3102 10.1587 14.3102C14.3613 14.3102 18.5639 14.3102 22.7666 14.3102H22.7672Z" fill="#77C373"/>
<path id="Vector_3" d="M18.9902 18.8438C21.9331 18.8438 24.8765 18.8438 27.8193 18.8438C28.5009 18.8438 28.8811 19.1429 28.8787 19.6744C28.8757 20.2011 28.4915 20.4973 27.8081 20.4973C21.9118 20.4973 16.016 20.4973 10.1197 20.4967C9.98257 20.4967 9.84246 20.4961 9.70827 20.4713C9.31159 20.3986 9.03433 20.0474 9.04497 19.6484C9.05561 19.2488 9.35061 18.9118 9.74847 18.8586C9.87438 18.8414 10.0039 18.8444 10.1315 18.8444C13.0844 18.8438 16.0373 18.8444 18.9908 18.8444L18.9902 18.8438Z" fill="#77C373"/>
<path id="Vector_4" d="M17.4542 41.5175C19.8951 41.5175 22.3361 41.5175 24.777 41.5175C25.4628 41.5175 25.8459 41.8096 25.8529 42.3363C25.86 42.8695 25.4675 43.171 24.7646 43.171C19.8827 43.171 15.0003 43.171 10.1184 43.171C10.0002 43.171 9.88133 43.1728 9.76487 43.158C9.35105 43.106 9.04896 42.7649 9.04423 42.3534C9.04009 41.9426 9.33568 41.5973 9.74832 41.5335C9.8163 41.5228 9.88547 41.5187 9.95404 41.5187C12.4541 41.5181 14.9542 41.5181 17.4536 41.5181L17.4542 41.5175Z" fill="#77C373"/>
<path id="Vector_5" d="M16.5674 25.0275C14.3624 25.0275 12.1579 25.0292 9.95282 25.0263C9.30135 25.0251 8.89345 24.5019 9.09326 23.9344C9.20972 23.6045 9.45565 23.4289 9.79498 23.3816C9.89193 23.368 9.99125 23.374 10.09 23.374C14.4014 23.374 18.7128 23.374 23.0236 23.3751C23.1702 23.3751 23.3209 23.3781 23.4622 23.4124C23.853 23.5064 24.1149 23.8835 24.0776 24.2719C24.0386 24.6751 23.7318 24.9926 23.3292 25.0192C23.0549 25.0375 22.7782 25.0269 22.5028 25.0269C20.5241 25.0269 18.5461 25.0269 16.5674 25.0269V25.0275Z" fill="#77C373"/>
<path id="Vector_6" d="M22.7405 11.6593C20.6058 11.6593 18.4705 11.6605 16.3358 11.6587C15.7754 11.6587 15.413 11.3425 15.4011 10.8542C15.3905 10.4149 15.7056 10.0567 16.1436 10.0117C16.2116 10.0046 16.2814 10.0064 16.35 10.0064C20.6099 10.0064 24.8699 10.0064 29.1305 10.0064C29.6779 10.0064 30.029 10.2807 30.0751 10.7353C30.1283 11.2579 29.7624 11.6546 29.2049 11.6576C28.0539 11.6635 26.9029 11.6593 25.7513 11.6593C24.7475 11.6593 23.7443 11.6593 22.7405 11.6593Z" fill="#77C373"/>
<path id="Vector_7" d="M15.8706 36.9962C17.8587 36.9962 19.8462 36.9927 21.8343 36.9992C22.3303 37.001 22.672 37.3415 22.6773 37.7996C22.6827 38.2531 22.3404 38.6048 21.858 38.6367C21.7598 38.6432 21.6611 38.6391 21.563 38.6391C18.5321 38.6391 15.5005 38.6391 12.4696 38.6391C11.6231 38.6391 10.7765 38.6474 9.93055 38.6361C9.27613 38.6273 8.86999 38.0532 9.11178 37.4916C9.25898 37.1488 9.53506 36.9868 9.9069 36.9862C10.6453 36.9862 11.3831 36.9856 12.1214 36.9856C13.3712 36.9856 14.6215 36.9856 15.8712 36.9856C15.8712 36.9891 15.8712 36.9927 15.8712 36.9956L15.8706 36.9962Z" fill="#77C373"/>
<path id="Vector_8" d="M15.6127 29.5635C13.7227 29.5635 11.8334 29.5653 9.94341 29.5623C9.41726 29.5617 9.04956 29.2224 9.04424 28.7495C9.03951 28.2966 9.38889 27.9348 9.8636 27.913C10.0894 27.9023 10.3164 27.9106 10.5429 27.9106C14.0568 27.9106 17.5707 27.9106 21.0846 27.9106C21.1827 27.9106 21.282 27.9059 21.3796 27.9141C21.8383 27.9532 22.1664 28.312 22.1576 28.7583C22.1481 29.2047 21.807 29.5535 21.3411 29.5594C20.5147 29.5694 19.6876 29.5635 18.8606 29.5635C17.7782 29.5635 16.6951 29.5635 15.6127 29.5635Z" fill="#77C373"/>
<path id="Vector_9" d="M15.309 34.1025C13.5568 34.1025 11.8051 34.1031 10.0529 34.1007C9.91635 34.1007 9.77506 34.0972 9.64441 34.0623C9.2637 33.9612 9.01955 33.6048 9.04674 33.2181C9.07452 32.8209 9.38371 32.4987 9.78334 32.4567C9.89034 32.4455 9.9997 32.4496 10.1079 32.4496C13.5727 32.4496 17.037 32.4496 20.5018 32.4496C20.6 32.4496 20.6993 32.4461 20.7968 32.4537C21.2408 32.488 21.5647 32.8356 21.5665 33.2731C21.5677 33.707 21.2426 34.06 20.8015 34.0984C20.704 34.1067 20.6047 34.1025 20.5066 34.1025C18.7744 34.1025 17.0417 34.1025 15.3096 34.1025H15.309Z" fill="#77C373"/>
<path id="Vector_10" d="M28.0954 35.8943C28.0954 35.497 28.0954 35.1146 28.0954 34.7321C28.0954 33.5704 28.0871 32.4088 28.1001 31.2471C28.1072 30.5892 28.735 30.1943 29.2913 30.4816C29.6378 30.6601 29.7513 30.9669 29.7501 31.3411C29.7459 32.7392 29.7483 34.1368 29.7483 35.5349C29.7483 35.6519 29.7483 35.7684 29.7483 35.9079H31.3303C31.335 35.7974 31.3445 35.6833 31.3445 35.5692C31.3456 33.4823 31.3445 31.3955 31.3462 29.3087C31.3462 28.7855 31.5993 28.4432 32.0219 28.377C32.5646 28.2919 32.9903 28.6643 32.9968 29.2508C33.0051 30.0778 32.9992 30.9043 32.9992 31.7313C32.9992 33.0112 32.9992 34.2905 32.9992 35.5703V35.9103H34.5929C34.5929 35.7903 34.5929 35.6756 34.5929 35.5615C34.5929 34.3508 34.587 33.1401 34.5959 31.9293C34.6006 31.3039 35.1386 30.9084 35.6931 31.1035C36.0478 31.2282 36.2441 31.5356 36.2453 31.989C36.2476 33.1702 36.2464 34.3514 36.2464 35.5325C36.2464 35.6496 36.2464 35.7666 36.2464 35.9079H37.8432C37.8432 35.7885 37.8432 35.6655 37.8432 35.542C37.8432 33.0319 37.842 30.5218 37.8444 28.0117C37.8444 27.4566 38.1423 27.0995 38.6129 27.0741C39.045 27.0504 39.4027 27.3289 39.4766 27.7569C39.4979 27.8816 39.4967 28.0117 39.4967 28.1394C39.4979 30.6104 39.4973 33.0809 39.4973 35.552V35.9138H41.0686C41.0757 35.7944 41.0887 35.6726 41.0893 35.5502C41.0905 32.2326 41.0899 28.9156 41.0905 25.5979C41.0905 25.4702 41.0875 25.3413 41.1011 25.2142C41.1449 24.8123 41.4671 24.509 41.8673 24.4847C42.2645 24.4605 42.6269 24.7265 42.7109 25.1214C42.741 25.2639 42.7422 25.4147 42.7422 25.5613C42.744 28.8789 42.7434 32.196 42.7434 35.5136V35.9032C42.8273 35.9191 42.8829 35.9292 42.9385 35.9404C43.3694 36.0255 43.6609 36.385 43.6355 36.7982C43.6095 37.2185 43.2884 37.5508 42.8504 37.5768C42.4969 37.5975 42.1422 37.5874 41.7875 37.5874C38.6182 37.5874 35.4484 37.588 32.2785 37.5874C30.9301 37.5874 29.5816 37.5851 28.2331 37.5839C27.6112 37.5833 27.2583 37.3273 27.2075 36.8402C27.1566 36.3525 27.4386 36.0403 28.0954 35.8943Z" fill="#77C373"/>
</g>
</svg>
